<?xml version="1.0" encoding="utf-8"?>
<svg id="master-artboard" viewBox="0 0 200 100" version="1.1" xmlns="http://www.w3.org/2000/svg" x="0px" y="0px" style="enable-background:new 0 0 336 235.2;" width="200px" height="100px"><rect id="ee-background" x="0" y="0" width="200" height="100" style="fill: white; fill-opacity: 1; pointer-events: none;"/><defs><style id="ee-google-fonts">@import url(https://fonts.googleapis.com/css?family=Merriweather:300,300italic,400,400italic,700,700italic,900,900italic|Open+Sans:300,300italic,400,400italic,600,600italic,700,700italic,800,800italic);</style></defs><path d="M 15.350000381469727 25.700000762939453 C 14.623332977294922 26.399999618530273 13.710000038146973 27.023332595825195 12.609999656677246 27.56999969482422 C 11.50333309173584 28.116666793823242 10.386666297912598 28.389999389648438 9.260000228881836 28.389999389648438 C 7.853333473205566 28.389999389648438 6.710000038146973 28.139999389648438 5.829999923706055 27.639999389648438 C 4.949999809265137 27.133333206176758 4.303333282470703 26.336666107177734 3.890000104904175 25.25 C 3.4700000286102295 24.156665802001953 3.259999990463257 22.713333129882812 3.259999990463257 20.920000076293945 L 3.259999990463257 11.120000839233398 L 1.3899999856948853 10.489999771118164 L 1.3899999856948853 8.850000381469727 L 6.389999866485596 8.350000381469727 L 6.409999847412109 8.350000381469727 L 7.110000133514404 8.799999237060547 L 7.110000133514404 20.729999542236328 C 7.110000133514404 22.016666412353516 7.206666469573975 23.020000457763672 7.400000095367432 23.739999771118164 C 7.5933332443237305 24.459999084472656 7.933333396911621 24.98666763305664 8.420000076293945 25.31999969482422 C 8.899999618530273 25.65333366394043 9.59666633605957 25.81999969482422 10.510000228881836 25.81999969482422 C 11.390000343322754 25.81999969482422 12.206666946411133 25.649999618530273 12.960000038146973 25.309999465942383 C 13.713333129882812 24.976667404174805 14.366666793823242 24.59000015258789 14.920000076293945 24.149999618530273 L 14.920000076293945 11.129999160766602 L 12.510000228881836 10.469999313354492 L 12.510000228881836 8.84000015258789 L 17.850000381469727 8.350000381469727 L 17.8799991607666 8.350000381469727 L 18.780000686645508 8.799999237060547 L 18.780000686645508 26.09000015258789 L 20.799999237060547 26.09000015258789 L 20.799999237060547 27.780000686645508 C 20.14666748046875 27.97333335876465 19.58333396911621 28.123332977294922 19.110000610351562 28.229999542236328 C 18.6299991607666 28.336666107177734 18.079999923706055 28.389999389648438 17.459999084472656 28.389999389648438 C 16.739999771118164 28.389999389648438 16.206666946411133 28.25 15.859999656677246 27.969999313354492 C 15.520000457763672 27.696666717529297 15.350000381469727 27.233333587646484 15.350000381469727 26.579999923706055 L 15.350000381469727 25.700000762939453 ZM 26.027652740478516 25.869998931884766 L 26.027652740478516 11.709999084472656 L 23.60765266418457 11.030000686645508 L 23.60765266418457 9 L 28.60765266418457 8.329999923706055 L 28.69765281677246 8.329999923706055 L 29.487651824951172 8.989999771118164 L 29.487651824951172 10.360000610351562 L 29.477651596069336 11.129999160766602 C 29.990985870361328 10.670000076293945 30.6409854888916 10.226667404174805 31.42765235900879 9.799999237060547 C 32.2076530456543 9.373332977294922 33.04765319824219 9.023332595825195 33.94765090942383 8.75 C 34.84098434448242 8.483333587646484 35.687652587890625 8.350000381469727 36.48765182495117 8.350000381469727 C 37.95431900024414 8.350000381469727 39.08765411376953 8.623332977294922 39.88764953613281 9.170000076293945 C 40.687652587890625 9.709999084472656 41.24431610107422 10.549999237060547 41.55765151977539 11.690000534057617 C 41.87098693847656 12.829999923706055 42.027652740478516 14.373332977294922 42.027652740478516 16.31999969482422 L 42.027652740478516 25.869998931884766 L 44.4676513671875 26.15999984741211 L 44.4676513671875 28 L 35.97765350341797 28 L 35.97765350341797 26.15999984741211 L 38.13764953613281 25.869998931884766 L 38.13764953613281 16.310001373291016 C 38.13764953613281 14.99666690826416 38.050987243652344 13.966666221618652 37.87765121459961 13.220000267028809 C 37.70431900024414 12.473333358764648 37.37432098388672 11.90999984741211 36.88765335083008 11.530000686645508 C 36.40765380859375 11.149999618530273 35.69432067871094 10.959999084472656 34.747650146484375 10.959999084472656 C 33.93431854248047 10.959999084472656 33.08765411376953 11.136667251586914 32.2076530456543 11.489999771118164 C 31.327651977539062 11.836666107177734 30.55765151977539 12.260000228881836 29.89765167236328 12.760000228881836 L 29.89765167236328 25.869998931884766 L 32.22765350341797 26.15999984741211 L 32.22765350341797 28 L 23.80765151977539 28 L 23.80765151977539 26.15999984741211 L 26.027652740478516 25.869998931884766 ZM 49.38449478149414 25.869998931884766 L 49.38449478149414 11.709999084472656 L 46.93449401855469 11.020000457763672 L 46.93449401855469 9.020000457763672 L 52.30449295043945 8.329999923706055 L 52.38449478149414 8.329999923706055 L 53.254493713378906 8.989999771118164 L 53.254493713378906 25.869998931884766 L 55.95449447631836 26.15999984741211 L 55.95449447631836 28 L 46.644493103027344 28 L 46.644493103027344 26.15999984741211 L 49.38449478149414 25.869998931884766 M 48.68449401855469 2.8400001525878906 C 48.68449401855469 2.073333740234375 48.9078254699707 1.4233341217041016 49.3544921875 0.8899993896484375 C 49.8011589050293 0.36333274841308594 50.42449188232422 0.10000038146972656 51.22449493408203 0.10000038146972656 L 51.234493255615234 0.10000038146972656 C 51.70782470703125 0.10000038146972656 52.121158599853516 0.20999908447265625 52.47449493408203 0.43000030517578125 C 52.82115936279297 0.6499996185302734 53.087825775146484 0.9400005340576172 53.27449417114258 1.2999992370605469 C 53.461158752441406 1.6599998474121094 53.55449295043945 2.043333053588867 53.55449295043945 2.450000762939453 C 53.55449295043945 3.236665725708008 53.32782745361328 3.883333206176758 52.87449264526367 4.3899993896484375 C 52.427825927734375 4.89666748046875 51.77449417114258 5.149999618530273 50.914493560791016 5.149999618530273 L 50.90449523925781 5.149999618530273 C 50.25115966796875 5.149999618530273 49.71782684326172 4.930000305175781 49.30449295043945 4.489999771118164 C 48.89115905761719 4.049999237060547 48.68449401855469 3.5 48.68449401855469 2.8400001525878906 ZM 56.850650787353516 10.579999923706055 L 56.850650787353516 8.780000686645508 L 65.30065155029297 8.780000686645508 L 65.30065155029297 10.579999923706055 L 62.760650634765625 11.020000457763672 L 66.08065032958984 20.559999465942383 L 67.56065368652344 25.110000610351562 L 68.81065368652344 20.729999542236328 L 72.01065063476562 11.020000457763672 L 69.68064880371094 10.579999923706055 L 69.68064880371094 8.780000686645508 L 76.83065032958984 8.780000686645508 L 76.83065032958984 10.579999923706055 L 75.07064819335938 11.030000686645508 L 68.5406494140625 28.270000457763672 L 65.37065124511719 28.270000457763672 L 58.440650939941406 11.020000457763672 L 56.850650787353516 10.579999923706055 ZM 79.10617065429688 26.040000915527344 C 79.10617065429688 25.546667098999023 79.23950958251953 25.093334197998047 79.50617218017578 24.68000030517578 C 79.76617431640625 24.266666412353516 80.11283874511719 23.94333267211914 80.54617309570312 23.709999084472656 C 80.97283935546875 23.469999313354492 81.42284393310547 23.350000381469727 81.89617156982422 23.350000381469727 C 82.6761703491211 23.350000381469727 83.2695083618164 23.56999969482422 83.6761703491211 24.010000228881836 C 84.08950805664062 24.450000762939453 84.29617309570312 24.996665954589844 84.29617309570312 25.649999618530273 C 84.29617309570312 26.183332443237305 84.16950988769531 26.65333366394043 83.91617584228516 27.059999465942383 C 83.662841796875 27.47333335876465 83.31950378417969 27.790000915527344 82.88617706298828 28.010000228881836 C 82.45284271240234 28.229999542236328 81.98284149169922 28.34000015258789 81.4761734008789 28.34000015258789 C 81.0561752319336 28.34000015258789 80.66617584228516 28.24333381652832 80.3061752319336 28.049999237060547 C 79.94617462158203 27.856666564941406 79.65617370605469 27.586666107177734 79.43617248535156 27.239999771118164 C 79.21617126464844 26.893333435058594 79.10617065429688 26.49333381652832 79.10617065429688 26.040000915527344 ZM 99.50518035888672 15.4399995803833 C 99.50518035888672 14.380000114440918 99.39517974853516 13.546667098999023 99.17517852783203 12.9399995803833 C 98.9551773071289 12.333333015441895 98.57518005371094 11.889999389648438 98.0351791381836 11.610000610351562 C 97.49517822265625 11.323333740234375 96.728515625 11.180000305175781 95.73517608642578 11.180000305175781 C 93.8285140991211 11.180000305175781 91.82184600830078 11.716667175292969 89.71517944335938 12.789999961853027 L 89.7051773071289 12.789999961853027 L 88.85517883300781 11.030000686645508 C 89.1618423461914 10.763334274291992 89.74517822265625 10.413333892822266 90.60517883300781 9.979999542236328 C 91.46517944335938 9.553333282470703 92.44517517089844 9.180000305175781 93.54518127441406 8.860000610351562 C 94.64517974853516 8.540000915527344 95.69184875488281 8.379999160766602 96.6851806640625 8.379999160766602 C 98.32518005371094 8.379999160766602 99.61851501464844 8.60333251953125 100.56517791748047 9.049999237060547 C 101.50518035888672 9.489999771118164 102.18184661865234 10.200000762939453 102.59517669677734 11.180000305175781 C 103.01518249511719 12.15999984741211 103.22517395019531 13.486666679382324 103.22517395019531 15.15999984741211 L 103.22517395019531 26.139999389648438 L 105.2851791381836 26.139999389648438 L 105.2851791381836 27.799999237060547 C 103.63851165771484 28.19333267211914 102.39851379394531 28.389999389648438 101.56517791748047 28.389999389648438 C 101.09184265136719 28.389999389648438 100.73184204101562 28.350000381469727 100.48517608642578 28.270000457763672 C 100.23851013183594 28.190000534057617 100.05517578125 28.030000686645508 99.9351806640625 27.790000915527344 C 99.81517791748047 27.549999237060547 99.75518035888672 27.1733341217041 99.75518035888672 26.65999984741211 L 99.75518035888672 25.850000381469727 C 99.14851379394531 26.450000762939453 98.3485107421875 27.023332595825195 97.35517883300781 27.56999969482422 C 96.36851501464844 28.116666793823242 95.25851440429688 28.389999389648438 94.02517700195312 28.389999389648438 C 92.94517517089844 28.389999389648438 91.96184539794922 28.19333267211914 91.07518005371094 27.799999237060547 C 90.19517517089844 27.406665802001953 89.4918441772461 26.796667098999023 88.96517944335938 25.969999313354492 C 88.44517517089844 25.149999618530273 88.1851806640625 24.126667022705078 88.1851806640625 22.899999618530273 C 88.1851806640625 21.399999618530273 88.7051773071289 20.16666603088379 89.74517822265625 19.200000762939453 C 90.7851791381836 18.226665496826172 92.15518188476562 17.51333236694336 93.85517883300781 17.060001373291016 C 95.54850769042969 16.600000381469727 97.43184661865234 16.35333251953125 99.50518035888672 16.31999969482422 L 99.50518035888672 15.4399995803833 M 99.50518035888672 18.229999542236328 C 97.85184478759766 18.229999542236328 96.4918441772461 18.420000076293945 95.42517852783203 18.799999237060547 C 94.35851287841797 19.17333221435547 93.58517456054688 19.670000076293945 93.10517883300781 20.290000915527344 C 92.62517547607422 20.90999984741211 92.38517761230469 21.616666793823242 92.38517761230469 22.40999984741211 C 92.38517761230469 23.59000015258789 92.67851257324219 24.456666946411133 93.26517486572266 25.010000228881836 C 93.85184478759766 25.56333351135254 94.641845703125 25.84000015258789 95.63517761230469 25.84000015258789 C 96.1618423461914 25.84000015258789 96.80184173583984 25.690000534057617 97.55517578125 25.389999389648438 C 98.30184173583984 25.09000015258789 98.95184326171875 24.726667404174805 99.50518035888672 24.299999237060547 L 99.50518035888672 18.229999542236328 ZM 110.20580291748047 25.869998931884766 L 110.20580291748047 11.709999084472656 L 107.75580596923828 11.020000457763672 L 107.75580596923828 9.020000457763672 L 113.12580871582031 8.329999923706055 L 113.20580291748047 8.329999923706055 L 114.0758056640625 8.989999771118164 L 114.0758056640625 25.869998931884766 L 116.77580261230469 26.15999984741211 L 116.77580261230469 28 L 107.46580505371094 28 L 107.46580505371094 26.15999984741211 L 110.20580291748047 25.869998931884766 M 109.50580596923828 2.8400001525878906 C 109.50580596923828 2.073333740234375 109.72914123535156 1.4233341217041016 110.1758041381836 0.8899993896484375 C 110.62247467041016 0.36333274841308594 111.24580383300781 0.10000038146972656 112.04580688476562 0.10000038146972656 L 112.05580139160156 0.10000038146972656 C 112.52913665771484 0.10000038146972656 112.94247436523438 0.20999908447265625 113.29580688476562 0.43000030517578125 C 113.64247131347656 0.6499996185302734 113.90914154052734 0.9400005340576172 114.0958023071289 1.2999992370605469 C 114.282470703125 1.6599998474121094 114.37580871582031 2.043333053588867 114.37580871582031 2.450000762939453 C 114.37580871582031 3.236665725708008 114.14913940429688 3.883333206176758 113.69580841064453 4.3899993896484375 C 113.24913787841797 4.89666748046875 112.5958023071289 5.149999618530273 111.73580932617188 5.149999618530273 L 111.7258071899414 5.149999618530273 C 111.07247161865234 5.149999618530273 110.53913879394531 4.930000305175781 110.12580871582031 4.489999771118164 C 109.71247100830078 4.049999237060547 109.50580596923828 3.5 109.50580596923828 2.8400001525878906 Z" transform="matrix(1.0112353563308716, 0, 0, 1.0112353563308716, 33.820556640625, 14.329769134521484)" style="fill: rgb(106, 10, 14); white-space: pre; color: rgb(106, 10, 14);"/><path d="M 10.6899995803833 22 L 7.900000095367432 22 L 7.900000095367432 0.4799995422363281 L 0.30000001192092896 0.4799995422363281 L 0.30000001192092896 -2 L 18.290000915527344 -2 L 18.290000915527344 0.4799995422363281 L 10.6899995803833 0.4799995422363281 L 10.6899995803833 22 ZM 40.11834716796875 22 L 37.328346252441406 22 L 37.328346252441406 10.710000038146973 L 24.6883487701416 10.710000038146973 L 24.6883487701416 22 L 21.898347854614258 22 L 21.898347854614258 -2 L 24.6883487701416 -2 L 24.6883487701416 8.210000038146973 L 37.328346252441406 8.210000038146973 L 37.328346252441406 -2 L 40.11834716796875 -2 L 40.11834716796875 22 ZM 61.9216194152832 4.989999771118164 C 61.9216194152832 7.423333168029785 61.09162139892578 9.293333053588867 59.431617736816406 10.600000381469727 C 57.7716178894043 11.90666675567627 55.398284912109375 12.5600004196167 52.31161880493164 12.5600004196167 L 49.49161911010742 12.5600004196167 L 49.49161911010742 22 L 46.70161819458008 22 L 46.70161819458008 -2 L 52.9216194152832 -2 C 58.9216194152832 -2 61.9216194152832 0.3299999237060547 61.9216194152832 4.989999771118164 M 49.49161911010742 10.15999984741211 L 52.001617431640625 10.15999984741211 C 54.474952697753906 10.15999984741211 56.26495361328125 9.760000228881836 57.371620178222656 8.960000038146973 C 58.47828674316406 8.166666984558105 59.031620025634766 6.886666297912598 59.031620025634766 5.120000839233398 C 59.031620025634766 3.5333328247070312 58.511619567871094 2.35333251953125 57.47161865234375 1.5799999237060547 C 56.431617736816406 0.7999992370605469 54.81161880493164 0.4099998474121094 52.61161804199219 0.4099998474121094 L 49.49161911010742 0.4099998474121094 L 49.49161911010742 10.15999984741211 ZM 85.95433044433594 0.14999961853027344 C 83.3143310546875 0.14999961853027344 81.23099517822266 1.0266666412353516 79.70433044433594 2.780000686645508 C 78.17765808105469 4.540000915527344 77.4143295288086 6.946666717529297 77.4143295288086 10 C 77.4143295288086 13.140000343322754 78.15099334716797 15.566666603088379 79.62432861328125 17.280000686645508 C 81.09766387939453 18.99333381652832 83.19432830810547 19.850000381469727 85.9143295288086 19.850000381469727 C 87.59432983398438 19.850000381469727 89.50432586669922 19.549999237060547 91.64433288574219 18.950000762939453 L 91.64433288574219 21.389999389648438 C 89.98432922363281 22.016666412353516 87.934326171875 22.329999923706055 85.49433135986328 22.329999923706055 C 81.95433044433594 22.329999923706055 79.22432708740234 21.25666618347168 77.30432891845703 19.110000610351562 C 75.38433074951172 16.963333129882812 74.42433166503906 13.916666984558105 74.42433166503906 9.970000267028809 C 74.42433166503906 7.49666690826416 74.88766479492188 5.329999923706055 75.8143310546875 3.469999313354492 C 76.74099731445312 1.60333251953125 78.0776596069336 0.16666603088378906 79.82432556152344 -0.8400001525878906 C 81.5643310546875 -1.8466663360595703 83.61766052246094 -2.3500003814697266 85.98432922363281 -2.3500003814697266 C 88.50432586669922 -2.3500003814697266 90.70433044433594 -1.8899993896484375 92.5843276977539 -0.9699993133544922 L 91.40432739257812 1.4300003051757812 C 89.5843276977539 0.5766658782958984 87.76766204833984 0.14999961853027344 85.95433044433594 0.14999961853027344 ZM 112.00269317626953 12.989999771118164 C 112.00269317626953 15.923333168029785 111.2626953125 18.213333129882812 109.78269958496094 19.860000610351562 C 108.30936431884766 21.50666618347168 106.26936340332031 22.329999923706055 103.6626968383789 22.329999923706055 C 102.0560302734375 22.329999923706055 100.62936401367188 21.953332901000977 99.38269805908203 21.200000762939453 C 98.12936401367188 20.440000534057617 97.16603088378906 19.35333251953125 96.4926986694336 17.940000534057617 C 95.81269836425781 16.53333282470703 95.47269439697266 14.883333206176758 95.47269439697266 12.989999771118164 C 95.47269439697266 10.056666374206543 96.2060317993164 7.770000457763672 97.67269897460938 6.130000114440918 C 99.13935852050781 4.496665954589844 101.176025390625 3.6800003051757812 103.7826919555664 3.6800003051757812 C 106.29602813720703 3.6800003051757812 108.29602813720703 4.516666412353516 109.78269958496094 6.189999580383301 C 111.2626953125 7.863333702087402 112.00269317626953 10.130000114440918 112.00269317626953 12.989999771118164 M 98.29269409179688 12.989999771118164 C 98.29269409179688 15.283332824707031 98.75269317626953 17.03333282470703 99.67269897460938 18.239999771118164 C 100.59269714355469 19.446666717529297 101.94602966308594 20.049999237060547 103.73269653320312 20.049999237060547 C 105.5126953125 20.049999237060547 106.86602783203125 19.450000762939453 107.79269409179688 18.25 C 108.7193603515625 17.049999237060547 109.18269348144531 15.296667098999023 109.18269348144531 12.989999771118164 C 109.18269348144531 10.703332901000977 108.7193603515625 8.963333129882812 107.79269409179688 7.770000457763672 C 106.86602783203125 6.5833330154418945 105.49935913085938 5.989999771118164 103.69269561767578 5.989999771118164 C 101.9126968383789 5.989999771118164 100.56602478027344 6.576666831970215 99.65269470214844 7.75 C 98.74602508544922 8.923333168029785 98.29269409179688 10.670000076293945 98.29269409179688 12.989999771118164 ZM 119.3382339477539 4.010000228881836 L 119.3382339477539 15.680000305175781 C 119.3382339477539 17.14666748046875 119.67156982421875 18.239999771118164 120.3382339477539 18.959999084472656 C 121.0049057006836 19.68666648864746 122.05156707763672 20.049999237060547 123.47824096679688 20.049999237060547 C 125.35823822021484 20.049999237060547 126.73490142822266 19.53333282470703 127.60823822021484 18.5 C 128.4748992919922 17.47333335876465 128.90823364257812 15.793333053588867 128.90823364257812 13.460000038146973 L 128.90823364257812 4.010000228881836 L 131.63824462890625 4.010000228881836 L 131.63824462890625 22 L 129.38824462890625 22 L 128.9882354736328 19.59000015258789 L 128.84823608398438 19.59000015258789 C 128.28823852539062 20.476667404174805 127.51156616210938 21.15333366394043 126.51823425292969 21.6200008392334 C 125.53157043457031 22.093334197998047 124.40157318115234 22.329999923706055 123.12823486328125 22.329999923706055 C 120.94157409667969 22.329999923706055 119.30490112304688 21.809999465942383 118.2182388305664 20.770000457763672 C 117.1249008178711 19.729999542236328 116.57823944091797 18.066665649414062 116.57823944091797 15.780000686645508 L 116.57823944091797 4.010000228881836 L 119.3382339477539 4.010000228881836 ZM 145.6220703125 3.6800003051757812 C 146.42205810546875 3.6800003051757812 147.13873291015625 3.7466659545898438 147.77206420898438 3.8799991607666016 L 147.39205932617188 6.399999618530273 C 146.64540100097656 6.239999771118164 145.9887237548828 6.159999847412109 145.42205810546875 6.159999847412109 C 143.96873474121094 6.159999847412109 142.72540283203125 6.75 141.6920623779297 7.930000305175781 C 140.65206909179688 9.109999656677246 140.13206481933594 10.583333015441895 140.13206481933594 12.350000381469727 L 140.13206481933594 22 L 137.4120635986328 22 L 137.4120635986328 4.010000228881836 L 139.6620635986328 4.010000228881836 L 139.97206115722656 7.340000152587891 L 140.10206604003906 7.340000152587891 C 140.76873779296875 6.1666669845581055 141.5753936767578 5.263334274291992 142.52206420898438 4.629999160766602 C 143.46206665039062 3.9966659545898438 144.49539184570312 3.6800003051757812 145.6220703125 3.6800003051757812 ZM 162.74510192871094 17.09000015258789 C 162.74510192871094 18.76333236694336 162.11843872070312 20.05666732788086 160.86509704589844 20.969999313354492 C 159.61843872070312 21.876667022705078 157.86843872070312 22.329999923706055 155.61509704589844 22.329999923706055 C 153.2284393310547 22.329999923706055 151.36843872070312 21.953332901000977 150.03509521484375 21.200000762939453 L 150.03509521484375 18.670000076293945 C 150.90176391601562 19.10333251953125 151.82843017578125 19.446666717529297 152.8151092529297 19.700000762939453 C 153.80844116210938 19.953332901000977 154.76510620117188 20.079999923706055 155.6851043701172 20.079999923706055 C 157.1051025390625 20.079999923706055 158.1984405517578 19.85333251953125 158.96510314941406 19.399999618530273 C 159.7317657470703 18.946666717529297 160.11509704589844 18.253334045410156 160.11509704589844 17.31999969482422 C 160.11509704589844 16.619998931884766 159.811767578125 16.020000457763672 159.20510864257812 15.520000457763672 C 158.5984344482422 15.026666641235352 157.41177368164062 14.440000534057617 155.6450958251953 13.760000228881836 C 153.97177124023438 13.133333206176758 152.78176879882812 12.59000015258789 152.07510375976562 12.130000114440918 C 151.36843872070312 11.66333293914795 150.84510803222656 11.133333206176758 150.50509643554688 10.539999961853027 C 150.15843200683594 9.946666717529297 149.985107421875 9.239999771118164 149.985107421875 8.420000076293945 C 149.985107421875 6.953332901000977 150.58177185058594 5.796667098999023 151.7751007080078 4.950000762939453 C 152.9684295654297 4.10333251953125 154.6051025390625 3.6800003051757812 156.6851043701172 3.6800003051757812 C 158.61843872070312 3.6800003051757812 160.5117645263672 4.073333740234375 162.36509704589844 4.8600006103515625 L 161.3950958251953 7.079999923706055 C 159.58843994140625 6.3333330154418945 157.95176696777344 5.959999084472656 156.485107421875 5.959999084472656 C 155.1917724609375 5.959999084472656 154.2184295654297 6.163332939147949 153.5651092529297 6.569999694824219 C 152.9051055908203 6.976666450500488 152.57510375976562 7.533333778381348 152.57510375976562 8.239999771118164 C 152.57510375976562 8.720000267028809 152.6984405517578 9.130000114440918 152.94509887695312 9.470000267028809 C 153.1917724609375 9.8100004196167 153.58843994140625 10.133333206176758 154.13510131835938 10.4399995803833 C 154.6817626953125 10.74666690826416 155.735107421875 11.1899995803833 157.29510498046875 11.770000457763672 C 159.42843627929688 12.550000190734863 160.86843872070312 13.333333015441895 161.61509704589844 14.119999885559082 C 162.36843872070312 14.90666675567627 162.74510192871094 15.896666526794434 162.74510192871094 17.09000015258789 ZM 174.772705078125 22.329999923706055 C 172.11270141601562 22.329999923706055 170.0126953125 21.520000457763672 168.4727020263672 19.899999618530273 C 166.93936157226562 18.280000686645508 166.17269897460938 16.030000686645508 166.17269897460938 13.149999618530273 C 166.17269897460938 10.25 166.8860321044922 7.946666717529297 168.3126983642578 6.239999771118164 C 169.73936462402344 4.533332824707031 171.65603637695312 3.6800003051757812 174.0626983642578 3.6800003051757812 C 176.32269287109375 3.6800003051757812 178.10935974121094 4.420000076293945 179.42269897460938 5.899999618530273 C 180.7360382080078 7.386666297912598 181.3927001953125 9.34333324432373 181.3927001953125 11.770000457763672 L 181.3927001953125 13.5 L 168.99270629882812 13.5 C 169.04603576660156 15.606666564941406 169.57936096191406 17.209999084472656 170.5926971435547 18.309999465942383 C 171.6060333251953 19.40333366394043 173.03269958496094 19.950000762939453 174.87269592285156 19.950000762939453 C 176.8060302734375 19.950000762939453 178.7227020263672 19.543333053588867 180.62269592285156 18.729999542236328 L 180.62269592285156 21.15999984741211 C 179.65603637695312 21.579999923706055 178.74270629882812 21.8799991607666 177.88270568847656 22.059999465942383 C 177.022705078125 22.239999771118164 175.9860382080078 22.329999923706055 174.772705078125 22.329999923706055 M 174.03269958496094 5.959999084472656 C 172.58602905273438 5.959999084472656 171.43603515625 6.430000305175781 170.58270263671875 7.369999885559082 C 169.7227020263672 8.3100004196167 169.21603393554688 9.613333702087402 169.0626983642578 11.279999732971191 L 178.46270751953125 11.279999732971191 C 178.46270751953125 9.5600004196167 178.08270263671875 8.243332862854004 177.32269287109375 7.329999923706055 C 176.5560302734375 6.4166669845581055 175.45936584472656 5.959999084472656 174.03269958496094 5.959999084472656 Z" transform="matrix(1.011236310005188, 0, 0, 1.011236310005188, 6.51708984375, 65.39715576171875)" style="fill: rgb(51, 51, 51); white-space: pre; color: rgb(51, 51, 51);"/></svg>