 <svg version="1.0" xmlns="http://www.w3.org/2000/svg" width="700.000000pt" height="933.000000pt" viewBox="0 0 700.000000 933.000000" preserveAspectRatio="xMidYMid meet">
<metadata>
Created by potrace 1.12, written by Peter Selinger 2001-2015
</metadata>
<g transform="translate(0.000000,933.000000) scale(0.100000,-0.100000)" fill="#000000" stroke="none">
<path d="M3993 7533 c-13 -2 -23 -8 -23 -13 0 -11 27 -20 43 -14 7 2 21 -2 32
-11 17 -12 18 -16 5 -24 -12 -8 -12 -13 4 -29 43 -49 -39 -33 -103 20 -31 24
-37 26 -51 13 -21 -19 -30 -19 -45 2 -11 15 -13 15 -24 -6 -7 -12 -26 -31 -43
-41 -31 -19 -31 -19 -63 6 -18 13 -36 24 -42 24 -6 0 -27 11 -47 25 -37 25
-62 25 -52 0 10 -27 -52 -34 -88 -10 -23 15 -142 21 -516 28 -110 2 -296 -43
-343 -82 -8 -6 -42 -25 -75 -41 -78 -38 -208 -153 -272 -240 -27 -39 -50 -73
-50 -76 0 -15 -52 -74 -65 -74 -16 0 -74 -51 -169 -148 -33 -34 -67 -62 -74
-62 -7 0 -15 -7 -18 -15 -4 -8 -11 -15 -17 -15 -6 0 -45 -33 -86 -73 -42 -41
-98 -86 -126 -102 -27 -16 -51 -29 -53 -30 -1 -1 0 -10 4 -19 4 -10 18 -16 40
-16 22 0 34 -5 34 -14 0 -16 -69 -86 -86 -86 -18 0 -46 -48 -31 -53 8 -3 4
-13 -12 -31 -14 -14 -19 -26 -13 -26 17 0 15 -35 -2 -49 -16 -13 -82 -6 -103
12 -7 5 -13 6 -13 3 0 -4 -7 0 -16 8 -8 9 -26 16 -39 16 -13 0 -25 6 -28 13
-3 9 -9 9 -26 -1 -12 -7 -27 -10 -33 -6 -7 4 -8 3 -4 -4 4 -7 15 -12 24 -12
15 0 15 -2 2 -10 -8 -5 -10 -10 -4 -10 20 0 97 -195 89 -227 -11 -46 -33 -38
-101 36 -37 40 -81 78 -98 86 -17 8 -49 25 -71 38 -66 38 -155 32 -155 -11 0
-9 9 -36 20 -59 16 -35 28 -47 72 -66 58 -26 101 -69 129 -132 23 -49 24 -84
3 -92 -21 -8 -62 34 -131 134 -50 72 -64 85 -98 94 -22 6 -65 20 -95 31 -77
28 -203 36 -225 15 -14 -15 -14 -17 6 -27 11 -7 18 -14 16 -17 -3 -3 10 -18
28 -34 55 -48 163 -200 187 -261 13 -32 26 -58 30 -58 3 0 4 -9 1 -20 -3 -11
-1 -20 5 -20 7 0 9 -14 5 -35 -4 -23 -2 -35 6 -35 6 0 11 -5 11 -10 0 -7 -6
-7 -20 0 -14 8 -20 8 -20 0 0 -6 7 -13 15 -16 8 -4 15 -14 15 -23 -1 -14 -2
-14 -14 2 -15 20 -32 22 -39 5 -4 -10 -6 -10 -6 0 -1 7 -14 12 -31 12 -22 0
-30 5 -30 18 0 14 -2 15 -10 2 -7 -12 -12 -12 -29 4 -12 11 -21 14 -21 8 0 -6
5 -12 12 -14 6 -2 -4 -20 -24 -41 -26 -26 -45 -37 -66 -37 -45 0 -149 74 -181
128 -79 136 -116 135 -138 -3 -4 -23 1 -36 21 -54 14 -14 26 -30 26 -37 0 -6
7 -17 15 -24 8 -7 15 -17 15 -23 0 -5 -11 3 -25 19 -14 16 -25 35 -25 42 0 6
-5 12 -11 12 -7 0 -5 -10 5 -25 9 -13 16 -32 16 -42 0 -10 15 -34 33 -54 24
-26 31 -41 26 -55 -6 -16 -8 -16 -8 -2 -1 9 -6 20 -12 24 -8 4 -9 -1 -4 -16 9
-29 -3 -92 -17 -84 -7 4 -7 1 0 -13 6 -10 12 -39 15 -63 2 -25 12 -64 22 -88
17 -43 17 -44 -2 -63 -14 -14 -36 -21 -74 -23 -61 -3 -232 -28 -326 -46 -42
-8 -63 -17 -63 -27 0 -11 15 -13 78 -9 43 3 90 9 103 14 13 6 62 16 109 22 47
7 89 15 93 17 5 3 32 7 62 9 47 3 52 2 48 -15 -4 -15 -28 -22 -146 -40 -137
-20 -309 -50 -334 -57 -7 -2 -13 -11 -13 -20 0 -14 9 -15 68 -10 37 4 95 14
129 22 35 9 69 14 75 11 7 -2 29 2 48 8 20 7 60 16 90 19 30 4 63 10 73 12 9
3 17 1 17 -5 0 -6 -10 -11 -22 -12 -15 0 -18 -2 -8 -6 8 -3 21 -11 29 -17 15
-12 -53 -25 -274 -51 -33 -4 -64 -11 -70 -15 -5 -4 -29 -8 -53 -8 -24 -1 -50
-6 -58 -13 -7 -6 -21 -9 -29 -5 -19 7 -20 -27 -1 -43 11 -9 14 -8 12 6 -1 15
7 18 46 18 25 0 50 3 54 8 12 11 62 8 70 -5 5 -7 11 -5 21 7 10 14 37 22 111
31 53 7 106 16 117 19 16 5 23 -2 37 -32 21 -46 46 -79 54 -71 3 4 -3 15 -13
26 -24 25 -46 63 -39 69 9 9 25 -7 42 -42 9 -19 21 -35 26 -35 5 0 17 -7 26
-16 15 -15 14 -16 -8 -9 l-25 7 23 -24 c12 -13 19 -28 15 -31 -4 -4 11 -26 33
-50 45 -49 69 -87 54 -87 -6 0 -19 15 -30 33 -11 17 -20 27 -20 21 0 -17 40
-94 48 -92 14 5 73 -46 87 -76 19 -38 19 -39 -7 -31 -16 5 -13 0 9 -14 18 -11
33 -29 33 -39 0 -10 11 -29 25 -42 14 -13 25 -29 25 -36 0 -6 7 -17 15 -24 18
-15 20 -34 3 -24 -7 4 -3 -4 8 -17 12 -13 20 -29 18 -34 -3 -6 5 -37 16 -69
12 -37 15 -54 7 -48 -10 9 -12 0 -10 -39 2 -32 0 -48 -7 -44 -6 3 -10 -4 -10
-17 0 -22 -51 -78 -71 -78 -6 0 -21 8 -36 17 -26 17 -26 17 -12 -5 8 -12 19
-22 25 -22 6 0 18 -8 25 -17 11 -13 11 -15 1 -9 -7 4 -23 9 -35 11 -12 2 -33
7 -47 11 -22 7 -24 6 -11 -9 11 -14 11 -17 0 -17 -8 0 -19 10 -24 22 -6 12
-16 24 -23 26 -11 3 -12 0 -3 -17 8 -14 8 -21 1 -21 -5 0 -10 6 -10 13 0 23
-30 56 -46 50 -13 -5 -13 -8 -1 -22 28 -32 31 -44 9 -32 -22 11 -35 48 -21 57
15 9 10 52 -7 62 -9 5 -17 24 -19 42 -1 20 -10 37 -21 43 -16 9 -17 8 -7 -4
12 -15 13 -69 0 -69 -4 0 -3 -9 3 -20 6 -11 17 -20 25 -20 8 0 15 -7 15 -16 0
-11 -6 -14 -20 -9 -11 3 -20 5 -20 3 0 -12 45 -88 70 -119 43 -53 37 -59 -10
-11 -44 44 -64 41 -28 -5 13 -15 28 -38 35 -50 11 -20 10 -21 -28 -16 -27 4
-39 2 -39 -7 0 -7 7 -10 15 -7 8 4 17 2 20 -3 4 -6 -1 -10 -9 -10 -9 0 -16 -6
-16 -12 0 -7 -11 5 -25 26 -13 22 -22 43 -19 47 3 5 -4 14 -16 21 -11 7 -20
17 -20 23 -1 15 -48 70 -55 64 -8 -9 18 -55 48 -85 43 -42 34 -70 -11 -38 -25
17 -26 16 -12 -20 5 -14 6 -26 1 -26 -5 0 -12 11 -15 25 -4 14 -20 32 -39 41
-17 9 -40 23 -49 31 -9 8 -22 13 -27 12 -6 -2 14 -23 45 -47 31 -24 53 -46 50
-49 -3 -4 -15 2 -27 12 -17 16 -22 17 -29 5 -5 -9 -5 -19 2 -27 12 -15 32 -18
23 -3 -7 12 5 13 20 2 18 -13 57 -73 51 -79 -10 -10 -46 29 -46 49 0 10 -5 18
-11 18 -7 0 -9 -10 -5 -25 5 -19 2 -25 -10 -25 -9 0 -14 6 -11 14 5 13 -16 36
-52 56 -12 6 -21 17 -21 24 0 8 -6 16 -13 19 -10 4 -13 -2 -9 -20 3 -18 1 -24
-7 -19 -6 4 -9 11 -6 16 3 5 -3 15 -13 22 -10 7 -22 19 -27 27 -6 11 -4 13 10
7 15 -5 16 -4 5 9 -11 13 -15 13 -22 3 -7 -10 -12 -9 -21 6 -7 11 -27 36 -44
55 -30 34 -33 34 -34 14 -3 -43 -4 -46 -16 -50 -6 -2 -17 6 -23 17 -8 15 -15
19 -22 12 -7 -7 -6 -16 1 -30 6 -10 7 -22 4 -26 -3 -3 -1 -6 6 -6 7 0 10 -7 7
-18 -4 -12 3 -26 19 -40 25 -21 33 -42 17 -42 -15 0 -64 58 -58 68 3 5 -1 15
-9 22 -7 6 -11 18 -8 26 3 9 -2 14 -16 14 -27 0 -27 -23 0 -61 20 -28 14 -40
-8 -18 -13 13 6 -72 24 -106 15 -30 24 -87 13 -80 -6 3 -10 18 -10 33 0 25
-19 70 -20 47 0 -5 -5 -3 -10 5 -8 12 -10 9 -10 -12 0 -15 8 -31 18 -37 9 -6
12 -11 6 -11 -8 0 -8 -11 -1 -39 9 -32 15 -38 33 -36 15 1 26 -6 33 -23 7 -13
10 -27 7 -29 -2 -2 -7 5 -11 17 -4 14 -12 19 -22 16 -8 -3 -19 -6 -25 -6 -6 0
0 -9 13 -21 l24 -20 -22 6 c-17 5 -23 2 -23 -9 0 -9 6 -16 14 -16 19 0 31 -51
14 -61 -12 -8 -4 -13 15 -10 4 0 7 -6 7 -14 0 -14 -3 -13 -25 1 -23 15 -25 15
-25 0 0 -10 -6 -13 -15 -10 -18 7 -20 -7 -2 -25 9 -11 9 -12 0 -7 -10 6 -13
-338 -13 -1663 l0 -1671 3500 0 3500 0 0 2090 0 2090 -35 39 c-19 21 -35 45
-35 52 0 24 -38 77 -60 84 -15 5 -20 13 -18 33 2 21 -2 28 -17 30 -12 2 -29
18 -39 36 -10 19 -31 43 -47 55 -16 12 -29 28 -29 35 0 7 -9 21 -20 31 -11 10
-20 26 -20 35 0 22 -23 42 -41 35 -8 -3 -18 4 -24 17 -14 32 -113 84 -181 96
-86 15 -87 -2 -2 -28 72 -22 158 -57 158 -64 0 -2 -16 1 -35 6 -49 15 -71 -6
-55 -52 7 -19 -13 -118 -27 -139 -2 -3 -16 11 -32 30 -44 52 -47 29 -4 -27 21
-27 44 -60 51 -74 7 -14 21 -38 32 -55 16 -25 105 -197 119 -229 11 -26 -21
10 -35 39 -9 19 -20 35 -25 35 -5 0 -9 6 -9 14 0 8 -18 36 -40 61 -22 25 -40
52 -40 60 0 8 -8 20 -18 27 -11 7 -24 23 -30 35 -7 12 -21 25 -32 28 -11 3
-20 12 -20 20 0 7 -20 28 -45 46 -24 19 -45 39 -45 44 -1 15 -50 68 -57 61 -3
-3 -12 3 -20 14 -8 11 -25 20 -39 20 -13 0 -24 6 -24 13 0 6 -11 17 -25 24
-14 6 -23 7 -20 3 3 -5 -17 3 -45 16 -27 13 -58 24 -69 24 -10 0 -29 8 -42 19
-14 10 -40 23 -59 29 -19 6 -69 24 -110 40 -71 28 -199 62 -234 62 -9 0 -55
20 -103 45 -47 25 -92 45 -99 45 -7 0 -20 10 -29 23 l-17 22 7 -22 c5 -18 3
-22 -10 -17 -25 10 -45 58 -45 109 0 25 -4 45 -10 45 -5 0 -10 16 -10 35 0 24
5 35 15 35 9 0 15 9 15 25 0 14 -5 24 -12 23 -7 -2 -14 8 -15 22 -1 14 0 19 3
12 3 -6 10 -9 15 -6 12 7 -54 74 -73 74 -7 0 -2 6 12 13 23 12 25 17 24 87 -1
82 -19 177 -39 200 -20 24 -57 108 -53 121 2 6 -11 28 -30 48 -18 20 -38 44
-44 54 -9 17 -7 17 14 6 20 -10 19 -7 -7 21 -30 32 -30 32 -5 25 22 -6 19 -1
-17 35 -40 38 -53 60 -36 60 3 0 15 -7 25 -17 17 -15 18 -15 18 0 0 9 -11 24
-24 33 -14 8 -28 30 -32 47 -8 37 -27 71 -62 109 -14 15 -27 40 -28 54 -4 35
-22 54 -34 35 -6 -11 -12 -5 -24 24 -9 20 -16 40 -16 43 0 3 -9 16 -21 28 -11
12 -21 32 -21 45 -1 13 -6 30 -11 37 -5 6 -11 34 -13 61 -2 27 -17 77 -33 112
-16 35 -35 82 -41 104 -7 22 -21 56 -30 75 -10 19 -33 71 -50 115 -47 117 -76
171 -105 193 -14 11 -25 27 -25 36 0 27 -31 66 -52 66 -37 0 -261 213 -253
240 7 22 -20 43 -75 60 -25 7 -52 20 -61 27 -8 7 -17 12 -20 12 -2 -1 -14 -4
-26 -6z m-963 -69 c0 -13 -6 -15 -27 -10 -16 4 -46 11 -68 15 -37 8 -35 9 28
10 56 1 67 -2 67 -15z m343 0 c9 -3 17 -10 17 -15 0 -15 -61 -7 -105 13 l-40
19 55 -6 c30 -4 63 -9 73 -11z m737 -15 c0 -5 4 -8 9 -5 5 3 14 -1 21 -9 10
-12 9 -16 -4 -21 -9 -3 -23 -1 -31 6 -17 14 -20 40 -5 40 6 0 10 -5 10 -11z
m-1080 -79 c0 -5 -7 -15 -15 -23 -17 -17 -75 -8 -103 16 -9 7 -26 18 -37 23
-16 7 -9 9 30 12 28 2 54 7 59 12 10 10 66 -25 66 -40z m1146 13 c-7 -7 -26 7
-26 19 0 6 6 6 15 -2 9 -7 13 -15 11 -17z m-886 -302 c25 -5 41 -9 37 -10 -5
0 -5 -6 -2 -12 5 -7 14 -3 27 11 11 12 27 19 35 16 8 -3 19 -6 24 -6 4 0 6 -7
3 -15 -4 -8 -1 -15 5 -15 7 0 14 7 17 15 4 10 19 15 43 14 20 -1 28 -3 19 -6
-10 -2 -18 -9 -18 -14 0 -14 174 -11 188 3 7 7 36 12 70 10 134 -4 231 -10
239 -15 5 -3 40 -8 79 -11 39 -3 82 -10 97 -15 28 -11 117 -98 117 -114 0 -5
11 -22 25 -39 14 -16 25 -36 25 -45 0 -8 6 -29 14 -46 22 -51 66 -192 66 -214
0 -11 7 -37 15 -56 8 -20 15 -59 15 -86 0 -27 11 -82 26 -123 14 -40 32 -100
40 -133 27 -108 73 -438 74 -522 0 -50 4 -85 11 -89 8 -5 10 -39 6 -111 -5
-99 2 -128 24 -106 11 11 22 125 24 258 4 223 62 268 70 54 3 -88 8 -116 20
-125 20 -14 19 -40 -4 -144 -46 -204 -65 -265 -98 -311 -18 -26 -39 -49 -47
-52 -9 -4 -15 -37 -19 -119 -6 -128 -35 -235 -87 -319 -17 -28 -34 -65 -37
-82 -3 -18 -13 -44 -21 -58 -13 -23 -14 -54 -5 -230 11 -226 6 -263 -51 -349
-47 -71 -224 -201 -306 -225 -14 -4 -36 -20 -50 -36 -20 -23 -40 -32 -95 -44
-38 -8 -91 -15 -117 -15 -27 0 -48 -4 -48 -10 0 -6 32 -10 76 -10 87 0 95 -14
23 -39 -24 -9 -46 -19 -49 -22 -5 -7 -104 -30 -150 -35 -14 -2 -43 -8 -65 -13
-61 -16 -111 -13 -194 10 -139 39 -261 104 -261 140 0 23 6 23 80 0 l35 -10
-30 24 c-66 54 -82 72 -89 101 -4 16 -15 37 -24 47 -14 16 -14 19 -2 27 17 11
40 6 93 -21 21 -10 44 -19 51 -19 7 0 19 -7 26 -15 7 -8 23 -15 36 -15 12 0
26 -5 29 -10 11 -18 28 -11 22 9 -7 27 8 30 82 19 44 -7 67 -6 74 1 15 15 27
14 27 -4 0 -10 9 -13 30 -10 17 2 41 -2 55 -9 13 -7 38 -11 55 -8 27 4 31 8
26 28 -3 12 -2 26 4 29 5 3 11 -2 12 -12 1 -10 2 -25 4 -33 1 -8 2 -19 3 -24
1 -6 7 -1 15 10 13 16 18 17 35 6 19 -11 21 -10 21 12 0 13 -6 26 -12 29 -10
3 -10 7 1 20 7 9 17 15 21 12 10 -6 26 14 33 40 4 15 5 13 6 -7 1 -30 7 -33
30 -19 21 14 21 52 0 87 -26 44 -24 57 6 30 18 -17 25 -34 25 -60 0 -20 4 -36
9 -36 13 0 22 42 11 55 -5 6 -5 17 0 25 19 30 11 66 -20 88 -31 24 -52 30 -32
10 7 -7 11 -21 11 -32 -1 -17 -2 -18 -6 -3 -5 18 -23 24 -23 7 0 -5 -4 -10
-10 -10 -5 0 -10 10 -10 23 0 12 -5 29 -11 37 -8 12 -10 9 -6 -12 2 -16 1 -28
-3 -28 -10 0 -24 96 -16 108 3 6 -3 12 -14 15 -11 3 -20 1 -20 -4 0 -5 -5 -9
-10 -9 -6 0 -9 5 -8 11 2 6 -7 12 -19 14 -13 1 -23 -4 -23 -11 0 -16 -34 -12
-80 8 -24 11 -39 13 -47 6 -9 -7 -11 -1 -6 28 4 27 3 35 -5 30 -7 -4 -12 -2
-12 3 0 14 13 14 27 0 9 -9 11 -7 6 9 -3 12 1 27 8 35 19 18 58 27 65 16 4 -6
10 -6 17 -1 7 5 21 6 32 2 10 -3 39 -3 64 2 27 5 49 4 56 -2 9 -7 12 3 13 40
0 28 -3 50 -9 50 -5 0 -9 11 -9 25 0 14 5 25 10 25 16 0 12 32 -7 52 -9 10
-11 18 -5 18 6 0 12 -6 15 -12 4 -10 7 -10 18 -1 20 20 -3 37 -38 28 -36 -10
-223 -13 -243 -4 -8 4 -46 12 -84 17 -38 6 -72 16 -76 22 -3 6 -23 11 -43 12
-21 1 -42 7 -48 15 -15 17 -45 17 -52 0 -7 -18 3 -67 19 -92 6 -11 15 -48 19
-83 4 -34 13 -69 21 -77 27 -27 5 -72 -29 -59 -9 3 -24 -3 -36 -15 -27 -27
-30 -27 -42 9 -8 22 -17 30 -34 30 -13 0 -30 11 -40 26 -9 15 -13 24 -7 20 16
-10 24 55 8 73 -20 23 -21 61 -2 103 9 21 16 42 16 48 0 5 5 10 12 10 9 0 9 3
0 12 -8 8 -8 16 0 32 6 11 10 38 10 59 -2 40 18 81 44 91 9 3 34 -5 57 -19 37
-21 47 -23 83 -14 40 10 41 12 40 52 l-1 42 45 5 c25 3 51 9 58 13 21 14 54
-3 49 -24 -7 -25 13 -37 25 -15 18 33 98 8 98 -31 0 -7 4 -13 9 -13 13 0 20
61 10 87 -11 29 -39 37 -143 37 -102 1 -116 12 -59 47 31 18 55 23 128 26 50
1 114 10 143 19 29 9 65 14 79 11 19 -3 37 3 60 20 19 14 36 23 40 20 9 -10
44 13 37 24 -3 6 3 13 15 16 20 5 31 43 12 43 -5 0 -11 10 -14 22 -5 17 -9 19
-21 9 -10 -9 -16 -9 -21 -1 -8 13 -8 13 22 26 20 8 20 11 7 28 -11 15 -17 17
-26 8 -8 -8 -17 -8 -31 -1 -15 9 -31 4 -77 -20 -61 -33 -95 -33 -87 0 4 16 -1
19 -30 19 -20 0 -47 9 -66 24 -62 46 -237 72 -237 36 0 -16 40 -31 61 -25 25
8 89 -3 89 -15 0 -14 -42 -23 -99 -21 -44 2 -53 0 -48 -12 7 -18 -11 -37 -28
-30 -8 2 -18 -5 -25 -16 -6 -12 -17 -21 -24 -21 -7 0 -21 -9 -30 -19 -10 -11
-32 -23 -50 -27 -17 -3 -64 -20 -103 -37 -62 -27 -74 -36 -84 -64 -11 -33 -15
-36 -58 -37 -39 -2 -47 -26 -32 -103 7 -37 22 -82 32 -99 11 -17 19 -50 19
-73 0 -37 -3 -41 -24 -41 -13 0 -26 -6 -29 -12 -2 -7 -14 4 -27 25 -12 20 -28
37 -35 37 -7 0 -20 11 -29 25 -9 14 -23 25 -32 25 -21 0 -64 30 -64 45 0 7
-13 18 -30 25 -54 22 -130 188 -130 283 0 61 -42 220 -82 307 -32 71 -44 120
-57 225 -5 39 -13 81 -18 95 -6 14 -13 50 -17 80 -3 30 -14 90 -23 133 -14 68
-15 90 -4 160 7 45 21 111 31 147 34 121 42 170 35 208 -9 48 -9 219 -1 304 9
92 24 128 77 186 54 59 129 102 219 127 36 9 74 21 85 25 11 5 37 14 58 20 22
7 51 18 65 26 15 8 34 14 43 14 9 0 22 6 29 14 20 25 113 32 200 17z m-1855
-1151 c3 -5 2 -10 -4 -10 -5 0 -13 5 -16 10 -3 6 -2 10 4 10 5 0 13 -4 16 -10z
m3724 -335 l0 -20 -9 20 c-5 11 -9 27 -9 35 -1 13 0 13 9 0 5 -8 9 -24 9 -35z
m36 -200 c0 -10 -6 -20 -12 -22 -8 -3 -13 5 -13 22 0 17 5 25 13 23 6 -3 12
-13 12 -23z m-4665 -80 c0 -5 -5 -3 -10 5 -5 8 -10 20 -10 25 0 6 5 3 10 -5 5
-8 10 -19 10 -25z m4648 -129 c-2 -11 -8 -21 -15 -23 -15 -5 -26 31 -17 59 6
21 7 21 21 2 7 -10 12 -28 11 -38z m200 -371 c-3 -3 -9 2 -12 12 -6 14 -5 15
5 6 7 -7 10 -15 7 -18z m262 16 c0 -5 11 -12 24 -15 14 -3 27 -14 31 -25 5
-17 27 -40 135 -144 39 -37 101 -132 92 -141 -10 -10 -33 -7 -27 4 3 6 2 10
-3 10 -6 0 -45 34 -87 75 -43 41 -82 75 -87 75 -5 0 -27 18 -49 40 -22 22 -44
40 -48 40 -4 0 -13 11 -20 24 -10 18 -10 29 -2 45 12 21 41 30 41 12z m-4980
-165 c0 -6 -14 4 -30 23 -39 44 -39 53 0 16 17 -16 30 -34 30 -39z m25 -16 c3
-5 1 -10 -4 -10 -6 0 -11 5 -11 10 0 6 2 10 4 10 3 0 8 -4 11 -10z m4828 -45
c12 -18 63 -90 112 -161 115 -163 113 -160 82 -140 -13 9 -51 53 -83 99 -32
45 -62 84 -66 85 -5 2 -8 12 -8 22 0 9 -7 23 -15 30 -8 6 -17 22 -21 33 -4 12
-16 35 -27 51 -12 16 -15 26 -9 22 7 -4 23 -22 35 -41z m-4733 -115 c0 -5 -2
-10 -4 -10 -3 0 -8 5 -11 10 -3 6 -1 10 4 10 6 0 11 -4 11 -10z m44 -106 c5
-14 4 -15 -9 -4 -17 14 -19 20 -6 20 5 0 12 -7 15 -16z m336 -5 c0 -17 -17
-17 -27 1 -10 15 -9 17 8 13 10 -3 19 -9 19 -14z m40 6 c0 -8 -4 -15 -10 -15
-5 0 -7 7 -4 15 4 8 8 15 10 15 2 0 4 -7 4 -15z m30 -41 c0 -8 -4 -14 -10 -14
-5 0 -10 9 -10 21 0 11 5 17 10 14 6 -3 10 -13 10 -21z m37 4 c-3 -8 -6 -5 -6
6 -1 11 2 17 5 13 3 -3 4 -12 1 -19z m-77 -9 c0 -5 -4 -9 -10 -9 -5 0 -10 7
-10 16 0 8 5 12 10 9 6 -3 10 -10 10 -16z m-60 -10 c0 -6 -4 -7 -10 -4 -5 3
-10 11 -10 16 0 6 5 7 10 4 6 -3 10 -11 10 -16z m155 -47 c-8 -9 -45 30 -45
47 0 11 8 7 25 -13 14 -16 23 -31 20 -34z m-251 22 c5 -14 4 -15 -9 -4 -17 14
-19 20 -6 20 5 0 12 -7 15 -16z m137 -10 c5 -15 8 -29 5 -31 -2 -2 -8 10 -14
26 -13 38 -5 41 9 5z m57 14 c19 -19 14 -29 -8 -16 -20 13 -27 28 -12 28 4 0
13 -5 20 -12z m-238 -23 c0 -8 -2 -15 -4 -15 -2 0 -6 7 -10 15 -3 8 -1 15 4
15 6 0 10 -7 10 -15z m220 -9 c0 -8 7 -16 15 -20 8 -3 15 -10 15 -16 0 -16
-38 12 -43 32 -3 10 -1 18 4 18 5 0 9 -6 9 -14z m-156 -25 c-2 -3 -12 3 -22
13 -16 17 -16 18 5 5 12 -7 20 -15 17 -18z m211 9 c3 -5 1 -10 -4 -10 -6 0
-11 5 -11 10 0 6 2 10 4 10 3 0 8 -4 11 -10z m-55 -55 c7 -14 11 -28 8 -31 -3
-3 -13 9 -21 25 -18 37 -6 42 13 6z m65 15 c3 -5 1 -10 -4 -10 -6 0 -11 5 -11
10 0 6 2 10 4 10 3 0 8 -4 11 -10z m-15 -61 c5 -16 5 -29 0 -29 -8 0 -30 63
-30 85 1 15 21 -22 30 -56z m-26 -15 c9 -24 7 -56 -3 -50 -11 7 -20 66 -10 66
4 0 10 -7 13 -16z m-194 -25 c0 -5 -4 -9 -10 -9 -5 0 -10 7 -10 16 0 8 5 12
10 9 6 -3 10 -10 10 -16z m230 -24 c0 -8 -2 -15 -4 -15 -2 0 -6 7 -10 15 -3 8
-1 15 4 15 6 0 10 -7 10 -15z m-200 -15 c0 -5 -2 -10 -4 -10 -3 0 -8 5 -11 10
-3 6 -1 10 4 10 6 0 11 -4 11 -10z m185 -10 c3 -5 2 -10 -4 -10 -5 0 -13 5
-16 10 -3 6 -2 10 4 10 5 0 13 -4 16 -10z m-215 -36 c0 -8 -4 -12 -10 -9 -5 3
-10 10 -10 16 0 5 5 9 10 9 6 0 10 -7 10 -16z m47 -6 c-3 -8 -6 -5 -6 6 -1 11
2 17 5 13 3 -3 4 -12 1 -19z m153 -9 c0 -6 -4 -7 -10 -4 -5 3 -10 11 -10 16 0
6 5 7 10 4 6 -3 10 -11 10 -16z m-176 -58 c11 -34 12 -41 1 -30 -7 8 -16 30
-20 49 -9 46 -1 36 19 -19z m2 -85 c2 -11 13 -39 24 -63 24 -51 25 -60 5 -43
-8 7 -15 18 -15 24 0 7 -9 31 -20 54 -11 22 -20 50 -20 60 0 11 -7 25 -15 32
-8 7 -12 17 -9 22 7 10 43 -53 50 -86z m52 23 c-3 -8 -7 -3 -11 10 -4 17 -3
21 5 13 5 -5 8 -16 6 -23z m-263 11 c3 -5 2 -10 -4 -10 -5 0 -13 5 -16 10 -3
6 -2 10 4 10 5 0 13 -4 16 -10z m-671 -99 c-3 -3 -10 2 -15 11 -5 10 -16 15
-24 12 -10 -4 -15 0 -15 13 0 34 12 34 36 1 13 -17 21 -34 18 -37z m453 47
c-3 -8 -6 -5 -6 6 -1 11 2 17 5 13 3 -3 4 -12 1 -19z m393 -5 c0 -29 -12 -24
-17 7 -2 11 2 20 7 20 6 0 10 -12 10 -27z m80 -6 c0 -5 -4 -5 -10 -2 -5 3 -10
14 -10 23 0 15 2 15 10 2 5 -8 10 -19 10 -23z m-425 3 c3 -5 2 -10 -4 -10 -5
0 -13 5 -16 10 -3 6 -2 10 4 10 5 0 13 -4 16 -10z m440 -30 c3 -5 1 -10 -4
-10 -6 0 -11 5 -11 10 0 6 2 10 4 10 3 0 8 -4 11 -10z m-1005 -15 c10 -12 10
-15 -4 -15 -9 0 -16 7 -16 15 0 8 2 15 4 15 2 0 9 -7 16 -15z m55 -15 c5 -8
11 -8 20 0 10 8 21 1 48 -32 45 -54 40 -62 -8 -13 -27 27 -40 33 -49 26 -10
-8 -18 -5 -31 9 -16 17 -16 20 -2 20 9 0 19 -5 22 -10z m-110 -70 c10 -22 22
-40 26 -40 5 0 6 -7 3 -15 -4 -8 -1 -22 6 -30 7 -8 10 -15 7 -15 -3 0 1 -16 9
-35 8 -19 11 -35 7 -35 -9 0 -43 78 -43 97 0 7 -11 33 -25 59 -28 53 -28 54
-17 54 5 0 17 -18 27 -40z m101 -10 c9 -22 22 -40 30 -40 7 0 18 -9 24 -19 16
-30 11 -38 -8 -16 -9 12 -25 24 -35 28 -9 3 -20 15 -23 24 -3 10 -10 26 -15
35 -12 23 -11 28 1 28 6 0 17 -18 26 -40z m40 26 c10 -8 15 -18 11 -22 -4 -4
-17 2 -30 14 -24 25 -12 30 19 8z m314 4 c0 -13 -11 -13 -30 0 -12 8 -11 10 8
10 12 0 22 -4 22 -10z m-215 -10 c3 -5 1 -10 -4 -10 -6 0 -11 5 -11 10 0 6 2
10 4 10 3 0 8 -4 11 -10z m-175 -35 c0 -8 -4 -15 -9 -15 -5 0 -11 7 -15 15 -3
9 0 15 9 15 8 0 15 -7 15 -15z m348 -10 c-3 -3 -9 2 -12 12 -6 14 -5 15 5 6 7
-7 10 -15 7 -18z m42 15 c8 -5 11 -10 5 -10 -5 0 -17 5 -25 10 -8 5 -10 10 -5
10 6 0 17 -5 25 -10z m-110 -46 c0 -2 -7 -4 -15 -4 -8 0 -15 4 -15 10 0 5 7 7
15 4 8 -4 15 -8 15 -10z m-250 -13 c5 -11 10 -22 10 -25 0 -11 -26 5 -38 24
-10 17 -10 20 3 20 8 0 19 -9 25 -19z m195 9 c3 -6 -1 -7 -9 -4 -18 7 -21 14
-7 14 6 0 13 -4 16 -10z m-150 -60 c3 -6 -1 -7 -9 -4 -18 7 -21 14 -7 14 6 0
13 -4 16 -10z m262 4 c-3 -3 -12 -4 -19 -1 -8 3 -5 6 6 6 11 1 17 -2 13 -5z
m-247 -44 c0 -5 -2 -10 -4 -10 -3 0 -8 5 -11 10 -3 6 -1 10 4 10 6 0 11 -4 11
-10z m53 -11 c4 -16 3 -18 -9 -8 -7 6 -11 15 -8 20 8 13 11 11 17 -12z m-74
-62 c0 -15 -2 -17 -6 -7 -3 8 -14 26 -24 39 -28 35 -23 48 6 17 14 -15 25 -37
24 -49z m-62 21 c-3 -7 -5 -2 -5 12 0 14 2 19 5 13 2 -7 2 -19 0 -25z m194 -5
c13 -16 12 -17 -3 -4 -10 7 -18 15 -18 17 0 8 8 3 21 -13z m-214 -35 c-3 -8
-6 -5 -6 6 -1 11 2 17 5 13 3 -3 4 -12 1 -19z m131 10 c6 -8 6 -21 1 -33 l-9
-20 3 20 c1 11 -4 25 -13 32 -8 7 -10 13 -4 13 6 0 16 -6 22 -12z m-148 -39
c0 -16 -5 -29 -11 -29 -6 0 -8 9 -4 20 4 11 2 20 -4 20 -6 0 -8 7 -5 15 9 23
24 7 24 -26z m115 11 c3 -5 1 -10 -4 -10 -6 0 -11 5 -11 10 0 6 2 10 4 10 3 0
8 -4 11 -10z m85 -5 c7 -8 8 -15 2 -15 -5 0 -15 7 -22 15 -7 8 -8 15 -2 15 5
0 15 -7 22 -15z m-110 -9 c0 -8 3 -23 6 -33 5 -16 4 -16 -10 1 -18 22 -21 46
-6 46 6 0 10 -6 10 -14z m3043 -17 c20 -7 37 -16 37 -21 0 -15 -63 -8 -82 9
-21 18 -24 37 -5 29 6 -2 29 -10 50 -17z m-2973 -9 c0 -5 -4 -10 -10 -10 -5 0
-10 5 -10 10 0 6 5 10 10 10 6 0 10 -4 10 -10z m-32 -25 c-3 -3 -9 2 -12 12
-6 14 -5 15 5 6 7 -7 10 -15 7 -18z m107 5 c3 -5 1 -10 -4 -10 -6 0 -11 5 -11
10 0 6 2 10 4 10 3 0 8 -4 11 -10z m-35 -25 c0 -8 -2 -15 -4 -15 -2 0 -6 7
-10 15 -3 8 -1 15 4 15 6 0 10 -7 10 -15z m-245 -5 c3 -5 1 -10 -4 -10 -6 0
-11 5 -11 10 0 6 2 10 4 10 3 0 8 -4 11 -10z m205 -60 c0 -5 -2 -10 -4 -10 -3
0 -8 5 -11 10 -3 6 -1 10 4 10 6 0 11 -4 11 -10z m5770 -520 c0 -5 -2 -10 -4
-10 -3 0 -8 5 -11 10 -3 6 -1 10 4 10 6 0 11 -4 11 -10z"></path>
<path d="M4048 6263 c-20 -5 -42 -60 -27 -69 17 -10 87 7 104 26 35 38 -8 62
-77 43z"></path>
<path d="M3935 6250 c-3 -5 -2 -10 4 -10 5 0 13 5 16 10 3 6 2 10 -4 10 -5 0
-13 -4 -16 -10z"></path>
<path d="M4300 6224 c0 -8 5 -12 10 -9 6 3 10 10 10 16 0 5 -4 9 -10 9 -5 0
-10 -7 -10 -16z"></path>
<path d="M3059 6210 c-50 -3 -93 -11 -103 -19 -9 -7 -25 -11 -36 -8 -17 4 -20
2 -15 -14 5 -16 1 -19 -24 -19 -16 0 -32 -4 -35 -8 -7 -11 34 -73 44 -67 15 9
104 18 160 16 30 -1 87 -10 127 -20 69 -18 73 -18 101 -1 22 14 31 28 36 59 3
23 11 41 16 41 6 0 10 5 10 11 0 6 -11 8 -29 4 -16 -3 -45 0 -67 9 -54 20 -86
23 -185 16z"></path>
<path d="M4115 6189 c-4 -6 -5 -13 -2 -16 7 -7 27 6 27 18 0 12 -17 12 -25 -2z"></path>
<path d="M2775 6150 c-3 -5 1 -10 9 -10 9 0 16 5 16 10 0 6 -4 10 -9 10 -6 0
-13 -4 -16 -10z"></path>
<path d="M4120 6100 c0 -5 10 -10 23 -10 13 0 32 -7 43 -15 10 -8 26 -15 35
-15 8 0 34 -16 58 -36 23 -20 45 -34 48 -30 4 3 1 12 -5 18 -7 7 -12 19 -12
28 0 19 -48 44 -112 59 -58 14 -78 14 -78 1z"></path>
<path d="M3807 6024 c-40 -51 -45 -79 -22 -127 8 -18 23 -57 35 -89 14 -38 32
-65 56 -83 51 -39 53 -24 4 34 -44 52 -45 71 -5 71 15 0 31 10 41 25 18 28 34
33 34 11 0 -20 39 -27 112 -20 88 9 100 17 96 62 -4 47 14 52 74 20 36 -18 39
-23 22 -26 -12 -2 -30 -13 -40 -24 -19 -21 -19 -21 6 -8 14 7 33 17 44 22 11
6 36 5 68 -2 56 -14 69 -8 45 18 -10 10 -17 24 -17 30 0 15 -13 15 -28 0 -8
-8 -20 -4 -47 16 -26 20 -45 27 -69 25 -19 -2 -41 2 -49 9 -10 9 -17 10 -22 2
-3 -5 -25 -10 -48 -10 -65 0 -208 -60 -230 -97 -13 -21 -37 -15 -47 13 -16 40
-12 86 11 123 32 53 17 57 -24 5z m333 -104 c0 -5 -4 -10 -10 -10 -5 0 -10 5
-10 10 0 6 5 10 10 10 6 0 10 -4 10 -10z m-125 -19 c3 -5 1 -12 -5 -16 -5 -3
-10 1 -10 9 0 18 6 21 15 7z"></path>
<path d="M2960 5992 c-25 -9 -62 -27 -81 -39 -40 -26 -99 -95 -99 -117 0 -8
-5 -26 -11 -40 -20 -42 -7 -56 43 -44 24 5 77 9 118 9 162 -1 210 14 210 65 0
13 2 24 5 24 7 0 58 -32 65 -41 9 -11 98 -29 115 -23 12 5 14 14 10 35 -6 24
-3 28 21 31 39 4 40 21 5 61 -23 25 -41 36 -71 40 -22 3 -59 15 -81 27 -23 11
-44 19 -46 16 -8 -8 7 -26 21 -26 17 0 42 -29 50 -57 10 -32 -24 -43 -94 -31
-30 5 -75 10 -99 12 -49 4 -154 -23 -195 -49 -34 -22 -44 -13 -20 18 64 80
158 127 256 127 32 0 58 4 58 10 0 16 -130 10 -180 -8z m165 -152 c3 -5 -1
-10 -9 -10 -9 0 -16 5 -16 10 0 6 4 10 9 10 6 0 13 -4 16 -10z m-125 -20 c0
-5 -4 -10 -10 -10 -5 0 -10 5 -10 10 0 6 5 10 10 10 6 0 10 -4 10 -10z"></path>
<path d="M3970 5445 c0 -9 16 -31 36 -48 62 -55 87 -123 63 -169 -11 -20 3
-50 16 -36 13 13 17 118 6 146 -16 37 -121 130 -121 107z"></path>
<path d="M4560 5320 c0 -5 7 -10 15 -10 8 0 15 5 15 10 0 6 -7 10 -15 10 -8 0
-15 -4 -15 -10z"></path>
<path d="M4655 5310 c-3 -5 -1 -10 4 -10 6 0 11 5 11 10 0 6 -2 10 -4 10 -3 0
-8 -4 -11 -10z"></path>
<path d="M3973 5210 c-23 -9 -32 -30 -13 -30 16 0 60 23 60 32 0 10 -18 9 -47
-2z"></path>
<path d="M4130 4990 c0 -11 42 -31 49 -24 5 5 -30 33 -41 34 -5 0 -8 -5 -8
-10z"></path>
<path d="M4166 4934 c-8 -21 1 -34 19 -27 9 3 22 0 30 -7 24 -20 17 -3 -10 25
-30 30 -31 30 -39 9z"></path>
<path d="M4307 4918 c7 -42 21 -58 33 -39 5 10 3 25 -6 43 -20 38 -35 36 -27
-4z"></path>
<path d="M4206 4864 c6 -25 -5 -31 -23 -13 -7 7 -23 5 -54 -9 -24 -11 -62 -23
-83 -28 -23 -5 -40 -15 -41 -25 -2 -8 -12 -35 -23 -59 -23 -51 -19 -70 9 -44
10 9 16 21 13 26 -9 14 15 36 46 43 16 3 34 13 41 21 16 19 63 19 56 -1 -4 -9
6 -24 25 -39 26 -20 32 -32 34 -68 1 -24 3 -45 5 -48 1 -3 2 -12 3 -20 1 -8 4
-13 8 -12 4 2 17 6 28 9 13 3 20 14 20 28 0 12 6 28 14 34 8 7 12 20 9 29 -2
10 3 31 11 47 9 17 16 36 16 43 0 6 5 12 10 12 17 0 11 24 -15 55 -22 28 -24
28 -25 9 0 -12 -7 -25 -16 -28 -22 -8 -26 -8 -19 4 11 19 -5 48 -30 52 -22 5
-24 2 -19 -18z m31 -56 c-3 -8 -6 -5 -6 6 -1 11 2 17 5 13 3 -3 4 -12 1 -19z"></path>
<path d="M3900 4821 c0 -13 17 -17 56 -13 19 2 31 8 28 13 -7 12 -84 12 -84 0z"></path>
<path d="M3734 4775 c-9 -23 0 -27 31 -13 23 10 29 10 40 -5 17 -24 27 -21 23
6 -2 18 -10 23 -46 25 -31 2 -44 -1 -48 -13z"></path>
<path d="M3890 4740 c0 -5 5 -10 10 -10 6 0 10 5 10 10 0 6 -4 10 -10 10 -5 0
-10 -4 -10 -10z"></path>
<path d="M3880 4651 c0 -12 6 -21 16 -21 9 0 14 7 12 17 -5 25 -28 28 -28 4z"></path>
<path d="M3492 4639 c2 -7 10 -15 17 -17 8 -3 12 1 9 9 -2 7 -10 15 -17 17 -8
3 -12 -1 -9 -9z"></path>
<path d="M3700 4621 c0 -5 -3 -16 -6 -25 -5 -13 2 -16 42 -16 56 0 114 19 114
37 0 15 -21 17 -35 4 -6 -4 -27 -11 -48 -14 -28 -4 -40 -2 -44 9 -6 15 -23 19
-23 5z"></path>
<path d="M4227 4563 c-4 -3 -7 -11 -7 -17 0 -6 5 -5 12 2 6 6 9 14 7 17 -3 3
-9 2 -12 -2z"></path>
<path d="M4250 4500 c0 -5 5 -10 11 -10 5 0 7 5 4 10 -3 6 -8 10 -11 10 -2 0
-4 -4 -4 -10z"></path>
<path d="M4177 4484 c-8 -8 1 -24 14 -24 5 0 9 7 9 15 0 15 -12 20 -23 9z"></path>
<path d="M4202 4418 c2 -15 11 -24 26 -26 31 -5 29 22 -4 37 -23 10 -25 9 -22
-11z"></path>
<path d="M4270 4370 c0 -5 5 -10 10 -10 6 0 10 5 10 10 0 6 -4 10 -10 10 -5 0
-10 -4 -10 -10z"></path>
<path d="M4075 4350 c3 -5 10 -10 16 -10 5 0 9 5 9 10 0 6 -7 10 -16 10 -8 0
-12 -4 -9 -10z"></path>
<path d="M4200 4341 c0 -6 5 -13 10 -16 6 -3 10 -14 10 -23 1 -9 12 -30 25
-47 23 -28 25 -29 25 -8 0 12 -9 27 -21 33 -13 7 -18 17 -15 27 4 9 1 22 -5
29 -13 16 -29 18 -29 5z"></path>
<path d="M4260 4318 c0 -9 5 -20 11 -23 17 -11 20 0 4 21 -13 17 -14 17 -15 2z"></path>
<path d="M4330 4305 c0 -8 2 -15 4 -15 2 0 6 7 10 15 3 8 1 15 -4 15 -6 0 -10
-7 -10 -15z"></path>
<path d="M4193 4233 c-22 -8 -14 -23 12 -23 16 0 25 6 25 15 0 15 -14 18 -37
8z"></path>
<path d="M3796 4161 c-4 -5 -2 -12 3 -15 5 -4 12 -2 15 3 4 5 2 12 -3 15 -5 4
-12 2 -15 -3z"></path>
<path d="M4040 4136 c0 -8 5 -18 10 -21 6 -3 10 3 10 14 0 12 -4 21 -10 21 -5
0 -10 -6 -10 -14z"></path>
<path d="M4046 4069 c-11 -10 -15 -19 -9 -19 5 0 18 9 28 20 23 26 6 25 -19
-1z"></path>
<path d="M4010 4017 c0 -14 11 -38 24 -54 13 -15 26 -38 30 -51 4 -12 16 -27
27 -32 23 -13 24 -7 3 25 -9 14 -13 33 -9 45 4 13 2 20 -7 20 -7 0 -20 15 -28
32 -19 41 -40 48 -40 15z"></path>
<path d="M3980 3987 c0 -3 7 -21 15 -41 17 -39 41 -51 29 -13 -5 19 -44 66
-44 54z"></path>
<path d="M3970 3911 c0 -8 -8 -23 -17 -33 -11 -12 -13 -22 -6 -29 15 -15 43 1
43 25 0 25 -20 61 -20 37z"></path>
<path d="M4070 3846 c0 -2 7 -9 15 -16 9 -7 15 -8 15 -2 0 5 -7 12 -15 16 -8
3 -15 4 -15 2z"></path>
<path d="M3962 3809 c-15 -23 -15 -29 -2 -29 6 0 10 6 10 14 0 8 5 16 12 18 7
3 8 7 2 11 -5 3 -15 -3 -22 -14z"></path>
<path d="M3970 3731 c0 -6 5 -13 10 -16 6 -3 10 1 10 9 0 9 -4 16 -10 16 -5 0
-10 -4 -10 -9z"></path>
<path d="M3370 3673 c0 -13 55 -29 164 -48 101 -17 116 -18 116 -7 0 4 -51 18
-112 30 -62 12 -125 24 -140 28 -16 4 -28 2 -28 -3z"></path>
<path d="M3750 3610 c0 -5 9 -10 20 -10 11 0 20 5 20 10 0 6 -9 10 -20 10 -11
0 -20 -4 -20 -10z"></path>
<path d="M3830 3610 c0 -5 11 -10 25 -10 14 0 25 5 25 10 0 6 -11 10 -25 10
-14 0 -25 -4 -25 -10z"></path>
<path d="M3256 3563 c-11 -11 6 -23 30 -23 14 0 23 4 20 9 -7 11 -43 21 -50
14z"></path>
<path d="M3700 3540 c0 -5 5 -10 10 -10 6 0 10 5 10 10 0 6 -4 10 -10 10 -5 0
-10 -4 -10 -10z"></path>
<path d="M3707 7513 c-4 -3 2 -12 13 -20 25 -17 46 -8 29 13 -12 15 -31 18
-42 7z"></path>
<path d="M3786 7501 c-4 -5 -2 -12 3 -15 5 -4 12 -2 15 3 4 5 2 12 -3 15 -5 4
-12 2 -15 -3z"></path>
<path d="M4278 7392 c12 -16 19 -32 16 -35 -3 -3 7 -12 24 -21 16 -8 50 -36
76 -62 49 -50 71 -54 41 -7 -22 34 -96 103 -110 103 -6 0 -15 10 -20 22 -6 13
-19 24 -29 26 -18 4 -18 2 2 -26z"></path>
<path d="M2174 7110 c-23 -9 -39 -28 -31 -36 5 -5 97 33 97 41 0 8 -42 5 -66
-5z"></path>
<path d="M1930 7080 c0 -5 20 -10 45 -10 25 0 45 5 45 10 0 6 -20 10 -45 10
-25 0 -45 -4 -45 -10z"></path>
<path d="M1790 7075 c-8 -2 -76 -9 -150 -15 -74 -6 -247 -22 -385 -35 -385
-37 -928 -81 -1128 -91 -70 -4 -127 -11 -127 -15 0 -13 119 -11 330 6 102 8
250 19 330 25 80 6 264 22 410 35 598 55 815 78 825 86 8 8 -69 11 -105 4z"></path>
<path d="M989 6576 c-76 -16 -109 -34 -109 -57 0 -11 -9 -16 -25 -16 -14 0
-25 4 -25 9 0 6 -7 5 -15 -2 -9 -8 -15 -8 -15 -2 0 7 -13 9 -35 5 -23 -4 -35
-2 -35 6 0 6 -9 11 -21 11 -11 0 -17 -4 -14 -10 3 -5 -1 -10 -9 -10 -8 0 -18
5 -21 10 -3 6 -10 10 -16 10 -16 0 -10 -26 11 -45 16 -14 29 -16 71 -11 118
16 207 16 323 0 70 -9 149 -14 186 -11 78 6 160 26 160 38 0 5 -7 6 -16 2 -10
-4 -15 -1 -14 8 5 35 -2 48 -32 59 -52 18 -272 22 -349 6z"></path>
<path d="M104 6541 c-18 -4 -48 -18 -68 -30 -36 -23 -36 -23 -36 -93 0 -68 1
-70 23 -64 12 4 45 12 72 18 28 7 53 17 57 22 5 7 8 6 8 -2 0 -8 5 -10 13 -5
14 8 18 9 67 12 28 1 32 4 20 12 -12 8 -10 9 9 4 12 -4 42 -2 65 4 22 5 74 15
114 22 l73 11 -33 23 c-18 13 -36 21 -40 18 -5 -2 -8 0 -8 5 0 29 -261 63
-336 43z"></path>
<path d="M603 6515 c-13 -5 -23 -16 -23 -23 0 -9 7 -11 23 -6 28 8 29 10 25
26 -2 10 -9 10 -25 3z"></path>
<path d="M1490 6520 c0 -5 5 -10 10 -10 6 0 10 5 10 10 0 6 -4 10 -10 10 -5 0
-10 -4 -10 -10z"></path>
<path d="M560 6481 c0 -7 -10 -9 -27 -6 -23 4 -25 4 -8 -4 39 -19 155 -10 124
10 -7 4 -23 3 -37 -2 -16 -6 -29 -6 -38 2 -11 9 -14 9 -14 0z"></path>
<path d="M440 6410 c0 -5 9 -10 20 -10 11 0 20 5 20 10 0 6 -9 10 -20 10 -11
0 -20 -4 -20 -10z"></path>
<path d="M360 6390 c0 -5 5 -10 10 -10 6 0 10 5 10 10 0 6 -4 10 -10 10 -5 0
-10 -4 -10 -10z"></path>
<path d="M205 6340 c-3 -5 1 -10 9 -10 8 0 18 5 21 10 3 6 -1 10 -9 10 -8 0
-18 -4 -21 -10z"></path>
<path d="M4840 6340 c0 -5 5 -10 10 -10 6 0 10 5 10 10 0 6 -4 10 -10 10 -5 0
-10 -4 -10 -10z"></path>
<path d="M128 6313 c7 -3 16 -2 19 1 4 3 -2 6 -13 5 -11 0 -14 -3 -6 -6z"></path>
<path d="M2 5563 l3 -208 67 -66 c76 -76 118 -99 180 -99 47 0 68 13 68 43 0
12 4 16 13 11 6 -4 3 2 -7 14 -11 12 -16 25 -13 29 4 3 1 13 -7 22 -8 9 -30
48 -51 86 -20 39 -42 75 -48 80 -12 10 -59 123 -73 175 -16 64 -75 120 -124
120 -8 0 -10 -63 -8 -207z"></path>
<path d="M340 5590 c0 -5 5 -10 11 -10 5 0 7 5 4 10 -3 6 -8 10 -11 10 -2 0
-4 -4 -4 -10z"></path>
<path d="M5306 5252 c-12 -12 -6 -34 8 -29 8 3 20 -1 26 -9 17 -19 30 -18 30
4 0 17 -53 46 -64 34z"></path>
<path d="M400 5210 c0 -5 5 -10 10 -10 6 0 10 5 10 10 0 6 -4 10 -10 10 -5 0
-10 -4 -10 -10z"></path>
<path d="M5415 5201 c-7 -12 12 -24 25 -16 5 3 20 -1 32 -9 24 -17 38 -20 38
-8 0 9 -58 42 -75 42 -8 0 -16 -4 -20 -9z"></path>
<path d="M5270 5149 c0 -5 5 -7 10 -4 6 3 10 8 10 11 0 2 -4 4 -10 4 -5 0 -10
-5 -10 -11z"></path>
<path d="M6040 4810 c0 -5 5 -10 10 -10 6 0 10 5 10 10 0 6 -4 10 -10 10 -5 0
-10 -4 -10 -10z"></path>
<path d="M220 4789 c12 -22 6 -69 -9 -69 -8 0 -24 37 -22 52 0 3 -6 9 -14 12
-18 6 -15 -28 3 -46 7 -7 12 -23 12 -36 0 -17 4 -22 14 -19 8 3 17 -1 20 -9 9
-23 7 -31 -4 -14 -5 8 -12 11 -16 7 -4 -4 0 -15 9 -24 26 -29 37 -70 27 -97
-7 -19 -5 -28 11 -42 10 -9 19 -21 19 -25 0 -14 45 -78 59 -84 17 -7 29 4 15
13 -14 9 -47 72 -41 79 9 8 45 -30 41 -42 -3 -6 2 -17 10 -24 8 -7 12 -19 9
-27 -3 -8 0 -14 5 -14 21 0 24 21 7 46 -9 14 -14 28 -11 31 6 7 36 -16 36 -27
0 -4 18 -27 40 -51 24 -27 36 -47 30 -54 -5 -6 -2 -18 7 -30 15 -20 15 -20 10
3 -3 12 -3 22 0 22 8 0 73 -73 73 -83 0 -4 5 -5 10 -2 17 10 12 18 -52 88 -90
97 -120 135 -116 148 2 5 17 -7 33 -27 17 -21 49 -59 72 -84 84 -90 103 -117
96 -136 -3 -11 -10 -21 -14 -24 -11 -7 0 -21 39 -48 38 -27 42 -15 9 25 -19
22 -22 34 -16 56 4 15 4 27 0 27 -4 0 -20 20 -35 45 -29 46 -104 125 -118 125
-4 0 -8 9 -8 20 0 11 -7 23 -15 26 -8 4 -15 12 -15 19 0 7 -7 18 -15 25 -8 7
-15 21 -15 31 0 11 -9 28 -20 39 -11 11 -20 26 -20 33 0 6 -5 19 -10 27 -7 11
-8 6 -6 -17 3 -17 14 -41 25 -52 30 -30 26 -49 -4 -21 -38 35 -30 11 9 -30 29
-30 32 -37 20 -48 -12 -11 -17 -6 -33 31 -11 24 -26 47 -35 50 -9 4 -16 11
-16 17 0 6 5 8 10 5 16 -10 12 12 -5 29 -17 17 -20 30 -5 21 13 -8 13 -2 -4
31 -8 15 -13 31 -11 35 3 4 -2 10 -11 13 -14 5 -16 1 -11 -21 3 -16 9 -36 12
-46 5 -13 3 -16 -8 -11 -8 3 -18 22 -22 42 -4 20 -12 40 -18 44 -9 5 -9 10 0
19 13 13 -2 69 -18 69 -6 0 -5 -9 1 -21z m65 -192 c7 -18 23 -41 34 -51 11
-10 18 -23 15 -28 -6 -10 -45 38 -70 85 -9 17 -11 27 -4 27 6 0 17 -15 25 -33z
m7 -77 c4 0 8 -5 8 -12 0 -6 -9 -3 -20 7 -11 10 -20 25 -19 34 0 11 4 9 11 -6
6 -13 15 -23 20 -23z"></path>
<path d="M6115 4800 c-3 -6 1 -12 9 -15 9 -3 24 -7 33 -10 15 -5 15 -3 -2 15
-20 22 -31 25 -40 10z"></path>
<path d="M105 4760 c10 -11 23 -20 28 -20 6 0 2 9 -8 20 -10 11 -23 20 -28 20
-6 0 -2 -9 8 -20z"></path>
<path d="M6320 4760 c0 -5 5 -10 10 -10 6 0 10 5 10 10 0 6 -4 10 -10 10 -5 0
-10 -4 -10 -10z"></path>
<path d="M540 4740 c0 -8 10 -28 21 -45 l21 -30 -7 30 c-7 35 -35 70 -35 45z"></path>
<path d="M115 4721 c-3 -5 5 -17 17 -26 13 -8 22 -19 22 -23 -3 -14 14 -48 30
-61 9 -7 14 -16 12 -20 -2 -3 2 -15 10 -26 13 -18 14 -17 11 11 -2 17 -11 41
-20 54 -9 14 -17 28 -17 33 0 15 -58 68 -65 58z"></path>
<path d="M6180 4710 c0 -5 5 -10 10 -10 6 0 10 5 10 10 0 6 -4 10 -10 10 -5 0
-10 -4 -10 -10z"></path>
<path d="M110 4674 c0 -5 7 -19 15 -30 8 -10 15 -14 15 -8 0 5 -7 19 -15 30
-8 10 -15 14 -15 8z"></path>
<path d="M590 4660 c0 -5 5 -10 11 -10 5 0 7 5 4 10 -3 6 -8 10 -11 10 -2 0
-4 -4 -4 -10z"></path>
<path d="M566 4623 c10 -18 25 -33 33 -33 13 0 13 2 0 13 -8 6 -22 21 -33 32
-18 20 -18 19 0 -12z"></path>
<path d="M390 4622 c0 -5 6 -17 14 -27 13 -18 14 -18 9 8 -5 24 -23 39 -23 19z"></path>
<path d="M464 4554 c12 -39 26 -45 26 -11 0 12 -8 27 -18 34 -17 10 -18 8 -8
-23z"></path>
<path d="M180 4554 c0 -13 18 -39 24 -34 2 3 -2 14 -10 24 -8 11 -14 16 -14
10z"></path>
<path d="M430 4541 c0 -5 5 -13 10 -16 6 -3 10 -2 10 4 0 5 -4 13 -10 16 -5 3
-10 2 -10 -4z"></path>
<path d="M510 4542 c0 -6 4 -12 9 -12 5 0 11 -13 15 -30 3 -16 10 -30 16 -30
7 0 9 9 5 23 -8 26 -45 67 -45 49z"></path>
<path d="M630 4540 c0 -5 5 -10 11 -10 5 0 7 5 4 10 -3 6 -8 10 -11 10 -2 0
-4 -4 -4 -10z"></path>
<path d="M670 4518 c0 -9 5 -20 10 -23 13 -8 13 5 0 25 -8 13 -10 13 -10 -2z"></path>
<path d="M229 4479 c17 -17 31 -36 31 -42 0 -26 21 -87 30 -87 6 0 6 10 0 26
-6 14 -10 35 -10 47 0 23 -53 87 -71 87 -6 0 3 -14 20 -31z"></path>
<path d="M705 4500 c3 -5 11 -10 16 -10 6 0 7 5 4 10 -3 6 -11 10 -16 10 -6 0
-7 -4 -4 -10z"></path>
<path d="M630 4481 c0 -6 5 -13 10 -16 6 -3 10 1 10 9 0 9 -4 16 -10 16 -5 0
-10 -4 -10 -9z"></path>
<path d="M580 4465 c0 -8 5 -15 10 -15 6 0 10 7 10 15 0 8 -4 15 -10 15 -5 0
-10 -7 -10 -15z"></path>
<path d="M680 4460 c0 -5 7 -10 15 -10 8 0 15 5 15 10 0 6 -7 10 -15 10 -8 0
-15 -4 -15 -10z"></path>
<path d="M210 4445 c0 -5 5 -17 10 -25 5 -8 10 -10 10 -5 0 6 -5 17 -10 25 -5
8 -10 11 -10 5z"></path>
<path d="M542 4441 c-11 -6 -10 -14 6 -40 12 -20 22 -28 27 -21 4 6 2 16 -3
23 -5 7 -11 20 -13 29 -3 12 -8 15 -17 9z"></path>
<path d="M6905 4430 c3 -5 10 -10 16 -10 5 0 9 5 9 10 0 6 -7 10 -16 10 -8 0
-12 -4 -9 -10z"></path>
<path d="M696 4415 c4 -8 11 -15 16 -15 6 0 5 6 -2 15 -7 8 -14 15 -16 15 -2
0 -1 -7 2 -15z"></path>
<path d="M200 4392 c0 -5 7 -15 15 -22 8 -7 15 -8 15 -2 0 5 -7 15 -15 22 -8
7 -15 8 -15 2z"></path>
<path d="M391 4381 c-18 -12 -5 -48 19 -54 11 -3 23 -13 26 -24 16 -46 50
-113 56 -113 12 0 10 7 -27 84 -19 40 -35 78 -35 83 0 18 -25 32 -39 24z"></path>
<path d="M6930 4376 c0 -8 5 -18 10 -21 6 -3 10 3 10 14 0 12 -4 21 -10 21 -5
0 -10 -6 -10 -14z"></path>
<path d="M0 4375 c0 -3 9 -27 20 -53 16 -36 31 -53 63 -70 49 -26 65 -28 43
-7 -8 8 -19 15 -23 15 -17 0 -64 57 -72 85 -6 25 -31 48 -31 30z"></path>
<path d="M110 4371 c0 -5 5 -13 10 -16 6 -3 10 -2 10 4 0 5 -4 13 -10 16 -5 3
-10 2 -10 -4z"></path>
<path d="M330 4360 c6 -11 15 -18 21 -14 6 4 6 11 -2 20 -17 21 -31 17 -19 -6z"></path>
<path d="M180 4362 c0 -5 7 -15 15 -22 8 -7 15 -8 15 -2 0 5 -7 15 -15 22 -8
7 -15 8 -15 2z"></path>
<path d="M691 4363 c-1 -7 8 -17 19 -23 14 -7 20 -7 20 0 0 5 -6 10 -14 10 -8
0 -17 6 -19 13 -4 9 -6 9 -6 0z"></path>
<path d="M732 4356 c7 -8 15 -12 17 -11 5 6 -10 25 -20 25 -5 0 -4 -6 3 -14z"></path>
<path d="M70 4353 c0 -6 7 -13 15 -17 8 -3 20 -17 25 -31 5 -14 14 -25 20 -25
18 0 11 16 -25 50 -19 19 -35 29 -35 23z"></path>
<path d="M601 4344 c0 -11 3 -14 6 -6 3 7 2 16 -1 19 -3 4 -6 -2 -5 -13z"></path>
<path d="M6987 4343 c-4 -3 -7 -11 -7 -17 0 -6 5 -5 12 2 6 6 9 14 7 17 -3 3
-9 2 -12 -2z"></path>
<path d="M150 4324 c0 -6 7 -19 15 -30 8 -10 14 -14 14 -9 0 6 -6 19 -14 29
-8 11 -15 15 -15 10z"></path>
<path d="M370 4302 c6 -13 14 -21 18 -18 3 4 -2 14 -12 24 -18 16 -18 16 -6
-6z"></path>
<path d="M610 4312 c0 -5 17 -16 38 -25 l37 -17 -30 25 c-31 26 -45 31 -45 17z"></path>
<path d="M740 4310 c0 -5 5 -10 10 -10 6 0 10 5 10 10 0 6 -4 10 -10 10 -5 0
-10 -4 -10 -10z"></path>
<path d="M3 4254 c4 -21 16 -57 27 -79 13 -24 19 -50 16 -67 -4 -20 0 -30 18
-41 13 -9 26 -29 29 -46 4 -17 11 -31 17 -31 7 0 9 9 5 23 -4 12 -8 24 -9 27
-3 12 20 10 25 -2 4 -7 12 -25 19 -40 17 -37 31 -26 17 12 -12 31 -7 40 28 54
6 2 5 11 -2 25 -7 11 -13 28 -13 36 0 9 -4 14 -9 10 -5 -3 -7 -22 -4 -42 5
-29 4 -34 -8 -27 -8 5 -21 7 -31 6 -9 -2 -19 2 -23 8 -3 5 -15 10 -26 10 -21
0 -25 10 -9 26 8 8 3 26 -14 60 -13 27 -28 61 -31 77 -12 45 -29 46 -22 1z"></path>
<path d="M210 4265 c0 -8 5 -15 10 -15 6 0 10 7 10 15 0 8 -4 15 -10 15 -5 0
-10 -7 -10 -15z"></path>
<path d="M697 4259 c7 -7 15 -10 18 -7 3 3 -2 9 -12 12 -14 6 -15 5 -6 -5z"></path>
<path d="M262 4248 c2 -6 10 -14 16 -16 7 -2 10 2 6 12 -7 18 -28 22 -22 4z"></path>
<path d="M506 4252 c-10 -17 38 -67 57 -59 22 8 22 27 1 27 -9 0 -24 10 -33
22 -12 13 -20 17 -25 10z"></path>
<path d="M150 4230 c0 -5 8 -10 18 -10 10 0 42 -25 72 -55 30 -30 61 -55 70
-55 9 0 -6 19 -34 46 -82 75 -126 101 -126 74z"></path>
<path d="M640 4228 c1 -16 39 -63 45 -56 7 7 -25 68 -36 68 -5 0 -9 -6 -9 -12z"></path>
<path d="M773 4225 c0 -8 7 -15 14 -15 8 0 11 5 7 12 -5 8 -2 9 9 5 10 -3 17
-2 17 3 0 6 -10 10 -23 10 -14 0 -24 -6 -24 -15z"></path>
<path d="M430 4215 c0 -8 2 -15 4 -15 2 0 6 7 10 15 3 8 1 15 -4 15 -6 0 -10
-7 -10 -15z"></path>
<path d="M70 4212 c0 -5 7 -15 15 -22 8 -7 15 -8 15 -2 0 5 -7 15 -15 22 -8 7
-15 8 -15 2z"></path>
<path d="M695 4210 c3 -5 8 -10 11 -10 2 0 4 5 4 10 0 6 -5 10 -11 10 -5 0 -7
-4 -4 -10z"></path>
<path d="M130 4176 c0 -9 5 -16 10 -16 6 0 10 4 10 9 0 6 -4 13 -10 16 -5 3
-10 -1 -10 -9z"></path>
<path d="M400 4181 c0 -6 5 -13 10 -16 6 -3 10 1 10 9 0 9 -4 16 -10 16 -5 0
-10 -4 -10 -9z"></path>
<path d="M540 4165 c-10 -12 -10 -15 1 -15 8 0 26 -7 42 -14 34 -18 34 -14 2
19 -30 29 -29 29 -45 10z"></path>
<path d="M780 4170 c0 -5 5 -10 10 -10 6 0 10 5 10 10 0 6 -4 10 -10 10 -5 0
-10 -4 -10 -10z"></path>
<path d="M3 4098 c1 -43 4 -70 7 -62 5 14 7 14 19 0 8 -9 15 -29 16 -44 1 -15
3 -37 3 -49 2 -21 38 -50 49 -39 3 2 -2 15 -11 28 -9 12 -16 42 -16 65 0 32
-5 45 -20 53 -11 6 -20 21 -20 35 0 13 -5 27 -11 30 -6 4 -8 13 -6 19 3 7 1
19 -4 27 -5 9 -8 -15 -6 -63z"></path>
<path d="M326 4145 c4 -8 10 -15 14 -15 4 0 13 -13 19 -30 5 -16 15 -30 22
-30 8 0 7 7 -3 23 -8 12 -21 32 -29 45 -16 25 -31 30 -23 7z"></path>
<path d="M718 4133 c5 -28 5 -28 -17 -9 -28 25 -38 14 -14 -18 11 -16 24 -23
36 -20 9 3 17 1 17 -5 0 -6 -7 -11 -16 -11 -8 0 -12 -4 -9 -10 10 -15 32 -12
39 6 4 9 1 23 -6 31 -7 9 -12 25 -13 36 0 11 -5 22 -11 24 -7 2 -10 -6 -6 -24z"></path>
<path d="M112 4119 c2 -7 10 -15 17 -17 8 -3 12 1 9 9 -2 7 -10 15 -17 17 -8
3 -12 -1 -9 -9z"></path>
<path d="M217 4123 c-7 -7 41 -63 54 -63 3 0 -1 16 -10 35 -15 33 -30 43 -44
28z"></path>
<path d="M474 4095 c4 -16 12 -34 18 -40 7 -7 8 -1 4 20 -4 17 -12 35 -18 40
-7 7 -8 1 -4 -20z"></path>
<path d="M421 4083 c13 -16 27 -32 31 -37 5 -6 8 -2 8 7 0 19 -34 57 -52 57
-6 0 -1 -12 13 -27z"></path>
<path d="M640 4091 c0 -16 108 -126 116 -119 2 3 -23 34 -56 69 -33 35 -60 57
-60 50z"></path>
<path d="M296 4083 c-11 -11 -6 -23 9 -23 8 0 15 4 15 9 0 13 -16 22 -24 14z"></path>
<path d="M220 4066 c8 -10 15 -24 16 -31 3 -19 37 -64 49 -65 5 0 4 5 -3 12
-7 7 -12 19 -12 28 0 9 -14 29 -32 46 -18 16 -26 21 -18 10z"></path>
<path d="M330 4070 c0 -5 5 -10 10 -10 6 0 10 5 10 10 0 6 -4 10 -10 10 -5 0
-10 -4 -10 -10z"></path>
<path d="M597 4060 c6 -22 43 -53 52 -44 3 3 1 8 -4 12 -6 4 -15 16 -21 26
-15 28 -34 32 -27 6z"></path>
<path d="M400 4050 c0 -5 5 -10 10 -10 6 0 10 5 10 10 0 6 -4 10 -10 10 -5 0
-10 -4 -10 -10z"></path>
<path d="M190 4033 c0 -23 15 -39 24 -25 3 5 -1 18 -9 28 -14 18 -14 18 -15
-3z"></path>
<path d="M306 4037 c3 -10 9 -15 12 -12 3 3 0 11 -7 18 -10 9 -11 8 -5 -6z"></path>
<path d="M510 4024 c0 -8 5 -12 10 -9 6 3 10 10 10 16 0 5 -4 9 -10 9 -5 0
-10 -7 -10 -16z"></path>
<path d="M760 4028 c1 -13 50 -79 50 -67 0 11 -31 69 -41 74 -5 4 -9 0 -9 -7z"></path>
<path d="M807 4020 c5 -20 49 -58 57 -49 2 2 -11 19 -30 37 -27 28 -32 30 -27
12z"></path>
<path d="M420 4010 c0 -5 5 -10 11 -10 5 0 7 5 4 10 -3 6 -8 10 -11 10 -2 0
-4 -4 -4 -10z"></path>
<path d="M662 4009 c2 -7 10 -15 17 -17 8 -3 12 1 9 9 -2 7 -10 15 -17 17 -8
3 -12 -1 -9 -9z"></path>
<path d="M380 3990 c0 -5 5 -10 11 -10 5 0 7 5 4 10 -3 6 -8 10 -11 10 -2 0
-4 -4 -4 -10z"></path>
<path d="M96 3972 c-7 -12 22 -38 31 -28 4 3 0 14 -9 22 -9 10 -18 12 -22 6z"></path>
<path d="M220 3971 c0 -5 15 -20 33 -32 l32 -22 -29 31 c-32 34 -36 37 -36 23z"></path>
<path d="M670 3960 c6 -11 13 -20 16 -20 2 0 0 9 -6 20 -6 11 -13 20 -16 20
-2 0 0 -9 6 -20z"></path>
<path d="M0 3927 c0 -19 7 -40 15 -47 22 -18 26 -9 17 35 -10 51 -32 59 -32
12z"></path>
<path d="M160 3954 c0 -14 21 -42 35 -48 13 -4 11 1 -5 24 -20 29 -30 36 -30
24z"></path>
<path d="M350 3951 c0 -21 13 -42 34 -53 20 -11 20 -10 4 9 -10 11 -18 25 -18
31 0 6 -4 14 -10 17 -5 3 -10 2 -10 -4z"></path>
<path d="M710 3940 c0 -5 5 -10 11 -10 5 0 7 5 4 10 -3 6 -8 10 -11 10 -2 0
-4 -4 -4 -10z"></path>
<path d="M306 3905 c4 -8 11 -15 16 -15 6 0 5 6 -2 15 -7 8 -14 15 -16 15 -2
0 -1 -7 2 -15z"></path>
<path d="M475 3900 c3 -5 11 -10 16 -10 6 0 7 5 4 10 -3 6 -11 10 -16 10 -6 0
-7 -4 -4 -10z"></path>
<path d="M242 3888 c2 -6 14 -15 27 -20 16 -5 21 -4 19 4 -2 6 -14 15 -27 20
-16 5 -21 4 -19 -4z"></path>
<path d="M205 3870 c-3 -5 -1 -10 4 -10 6 0 11 5 11 10 0 6 -2 10 -4 10 -3 0
-8 -4 -11 -10z"></path>
<path d="M389 3848 c5 -13 12 -23 17 -23 5 0 14 -3 19 -6 6 -3 19 -9 29 -13
19 -7 19 -6 1 14 -10 11 -24 20 -32 20 -7 0 -13 7 -13 15 0 8 -7 15 -15 15
-11 0 -12 -6 -6 -22z"></path>
<path d="M257 3840 c7 -25 23 -37 23 -17 0 8 -6 20 -14 26 -12 10 -13 8 -9 -9z"></path>
<path d="M520 3840 c0 -5 5 -10 10 -10 6 0 10 5 10 10 0 6 -4 10 -10 10 -5 0
-10 -4 -10 -10z"></path>
<path d="M540 3800 c0 -5 5 -10 11 -10 5 0 7 5 4 10 -3 6 -8 10 -11 10 -2 0
-4 -4 -4 -10z"></path>
<path d="M322 3786 c1 -10 8 -17 13 -17 15 1 12 24 -3 29 -9 3 -13 -2 -10 -12z"></path>
<path d="M575 3790 c3 -5 11 -10 16 -10 6 0 7 5 4 10 -3 6 -11 10 -16 10 -6 0
-7 -4 -4 -10z"></path>
<path d="M0 3446 c0 -9 5 -16 10 -16 6 0 10 4 10 9 0 6 -4 13 -10 16 -5 3 -10
-1 -10 -9z"></path>
<path d="M30 3420 c0 -5 -7 -10 -15 -10 -8 0 -15 -4 -15 -10 0 -11 11 -13 34
-4 17 7 22 34 6 34 -5 0 -10 -4 -10 -10z"></path>
</g>
</svg>