<?xml version="1.0" standalone="no"?>
<!DOCTYPE svg PUBLIC "-//W3C//DTD SVG 20010904//EN"
 "http://www.w3.org/TR/2001/REC-SVG-20010904/DTD/svg10.dtd">
<svg version="1.0" xmlns="http://www.w3.org/2000/svg"
 width="1030.000000pt" height="476.000000pt" viewBox="0 0 1030.000000 476.000000"
 preserveAspectRatio="xMidYMid meet">
<metadata>
Created by potrace 1.15, written by Peter Selinger 2001-2017
</metadata>
<g transform="translate(0.000000,476.000000) scale(0.100000,-0.100000)"
fill="#000000" stroke="none">
<path d="M3890 4523 l0 -76 -21 19 c-15 13 -36 19 -69 19 -40 0 -54 -5 -79
-29 -65 -62 -58 -203 13 -250 36 -23 107 -21 134 4 l22 21 0 -21 c0 -15 7 -20
25 -20 l25 0 0 205 0 205 -25 0 c-24 0 -25 -2 -25 -77z m-32 -103 c43 -40 40
-134 -5 -170 -35 -27 -59 -25 -94 9 -33 34 -39 92 -14 141 23 45 76 54 113 20z"/>
<path d="M353 4564 c-61 -30 -92 -89 -93 -178 0 -73 19 -122 62 -161 35 -32
44 -35 99 -35 73 0 111 18 133 64 23 49 21 66 -10 66 -19 0 -28 -7 -36 -30
-18 -53 -91 -76 -136 -44 -74 51 -74 217 0 268 39 28 82 20 117 -19 37 -42 87
-51 76 -12 -24 77 -134 119 -212 81z"/>
<path d="M713 4569 c-41 -12 -73 -53 -73 -94 0 -40 36 -79 88 -96 105 -34 141
-63 126 -103 -8 -20 -55 -46 -84 -46 -35 0 -79 29 -86 55 -4 18 -13 25 -30 25
-28 0 -31 -18 -9 -60 21 -40 63 -60 130 -60 92 0 135 33 135 104 0 51 -33 82
-119 114 -41 15 -80 36 -87 48 -13 18 -12 24 7 47 28 37 90 38 123 2 13 -14
33 -25 45 -25 19 0 21 4 15 23 -10 34 -34 56 -73 67 -42 12 -65 11 -108 -1z"/>
<path d="M1260 4562 c-45 -25 -73 -82 -78 -157 -5 -81 12 -141 53 -182 30 -30
38 -33 93 -33 55 0 64 3 95 33 43 40 63 117 53 200 -16 124 -119 190 -216 139z
m111 -42 c50 -28 71 -174 33 -239 -50 -84 -142 -60 -165 43 -30 134 43 243
132 196z"/>
<path d="M1630 4574 c-63 -23 -90 -58 -90 -116 0 -107 126 -154 203 -77 l30
30 -7 -52 c-9 -69 -28 -103 -66 -119 -41 -17 -85 1 -99 41 -8 22 -16 29 -37
29 -25 0 -26 -2 -20 -32 3 -18 20 -45 36 -60 26 -24 39 -28 89 -28 78 0 114
28 137 108 30 101 6 207 -57 254 -26 20 -92 32 -119 22z m88 -64 c13 -12 22
-33 22 -50 0 -67 -88 -96 -129 -44 -27 35 -26 59 4 89 30 31 73 32 103 5z"/>
<path d="M8123 4569 c-70 -20 -97 -108 -47 -154 14 -13 42 -29 62 -36 105 -34
141 -63 126 -103 -8 -20 -55 -46 -84 -46 -35 0 -79 29 -86 55 -4 18 -13 25
-30 25 -28 0 -31 -18 -9 -60 21 -40 63 -60 130 -60 92 0 135 33 135 104 0 51
-33 82 -119 114 -41 15 -80 36 -87 48 -13 18 -12 24 7 47 28 37 90 38 123 2
13 -14 33 -25 45 -25 19 0 21 4 15 23 -10 34 -34 56 -73 67 -42 12 -65 11
-108 -1z"/>
<path d="M1008 4553 c-19 -9 -28 -22 -28 -38 0 -21 3 -23 30 -15 l30 9 0 -160
0 -159 25 0 25 0 0 190 0 190 -27 -1 c-16 -1 -40 -8 -55 -16z"/>
<path d="M1931 4392 c-33 -99 -61 -184 -61 -190 0 -7 11 -12 24 -12 20 0 27 8
41 50 l17 50 72 0 72 0 15 -47 c13 -41 19 -48 43 -51 21 -3 27 0 24 10 -3 7
-32 93 -64 191 l-59 177 -31 0 -31 0 -62 -178z"/>
<path d="M2400 4380 l0 -190 25 0 25 0 0 190 0 190 -25 0 -25 0 0 -190z"/>
<path d="M6640 4380 l0 -190 73 0 c117 1 174 30 208 105 35 75 20 171 -33 222
-45 43 -76 53 -169 53 l-79 0 0 -190z m186 126 c55 -37 76 -141 40 -202 -26
-44 -65 -64 -125 -64 l-51 0 0 146 0 147 56 -6 c30 -3 66 -13 80 -21z"/>
<path d="M2928 4523 c-2 -31 -7 -39 -25 -41 -33 -5 -31 -42 2 -42 l25 0 0
-108 c0 -94 3 -111 19 -126 26 -24 114 -19 119 7 3 14 -4 17 -38 17 -51 0 -60
19 -60 131 l0 79 45 0 c38 0 45 3 45 19 0 16 -8 20 -42 23 -42 3 -43 4 -46 41
-2 28 -8 37 -22 37 -14 0 -20 -9 -22 -37z"/>
<path d="M4728 4523 c-2 -31 -7 -39 -25 -41 -33 -5 -31 -42 2 -42 l25 0 0
-108 c0 -127 10 -145 80 -144 46 1 60 7 60 28 0 10 -12 14 -40 14 -51 0 -60
20 -60 131 l0 79 45 0 c38 0 45 3 45 19 0 16 -8 20 -42 23 -42 3 -43 4 -46 41
-2 28 -8 37 -22 37 -14 0 -20 -9 -22 -37z"/>
<path d="M5958 4523 c-2 -31 -7 -39 -25 -41 -33 -5 -31 -42 2 -42 l25 0 0
-108 c0 -127 10 -145 80 -144 46 1 60 7 60 28 0 10 -12 14 -40 14 -51 0 -60
20 -60 131 l0 79 45 0 c38 0 45 3 45 19 0 16 -8 20 -42 23 -42 3 -43 4 -46 41
-2 28 -8 37 -22 37 -14 0 -20 -9 -22 -37z"/>
<path d="M7368 4523 c-2 -31 -7 -39 -25 -41 -33 -5 -31 -42 2 -42 l25 0 0
-108 c0 -127 10 -145 80 -144 46 1 60 7 60 28 0 10 -12 14 -40 14 -51 0 -60
20 -60 131 l0 79 45 0 c38 0 45 3 45 19 0 16 -8 20 -42 23 -42 3 -43 4 -46 41
-2 28 -8 37 -22 37 -14 0 -20 -9 -22 -37z"/>
<path d="M2655 4479 c-11 -6 -26 -19 -33 -28 -11 -14 -13 -13 -18 7 -4 13 -14
22 -25 22 -18 0 -19 -10 -19 -145 l0 -145 24 0 c24 0 24 2 28 99 3 89 6 102
27 125 30 32 73 34 101 6 17 -17 20 -33 20 -125 l0 -105 25 0 25 0 0 115 c0
111 -1 116 -27 145 -31 35 -93 49 -128 29z"/>
<path d="M3240 4483 c-8 -3 -23 -12 -32 -21 -16 -14 -18 -13 -18 1 0 11 -8 17
-25 17 l-25 0 0 -145 0 -145 25 0 c25 0 25 1 25 90 0 128 17 157 88 151 17 -1
22 3 22 23 0 30 -24 42 -60 29z"/>
<path d="M3410 4472 c-90 -44 -95 -223 -8 -268 42 -22 115 -20 147 3 60 44 77
132 41 211 -30 67 -108 91 -180 54z m117 -51 c29 -27 38 -89 20 -134 -47 -112
-176 -46 -153 78 13 68 87 99 133 56z"/>
<path d="M4451 4472 c-87 -44 -96 -197 -16 -260 41 -32 123 -31 159 3 14 13
26 28 26 34 0 5 3 16 6 25 11 29 -45 20 -58 -9 -23 -51 -94 -42 -124 16 -48
94 52 212 114 134 12 -15 30 -25 46 -25 31 0 32 3 5 46 -14 22 -32 37 -57 44
-50 14 -62 13 -101 -8z"/>
<path d="M5160 4472 c-44 -21 -70 -72 -70 -135 0 -98 46 -147 138 -147 109 0
164 113 112 228 -30 67 -108 91 -180 54z m117 -54 c61 -66 23 -188 -57 -188
-52 0 -93 78 -76 144 15 62 93 87 133 44z"/>
<path d="M5545 4479 c-11 -6 -26 -19 -33 -28 -11 -14 -13 -13 -18 7 -4 13 -14
22 -25 22 -18 0 -19 -10 -19 -145 l0 -145 24 0 c24 0 24 2 28 99 3 89 6 102
27 125 30 32 73 34 101 6 17 -17 20 -33 20 -125 l0 -105 25 0 25 0 0 115 c0
111 -1 116 -27 145 -31 35 -93 49 -128 29z"/>
<path d="M6210 4472 c-44 -21 -70 -72 -70 -135 0 -98 46 -147 138 -147 109 0
164 113 112 228 -30 67 -108 91 -180 54z m117 -51 c29 -27 38 -89 20 -134 -47
-112 -176 -46 -153 78 13 68 87 99 133 56z"/>
<path d="M7084 4480 c-35 -11 -48 -24 -58 -57 -6 -20 -4 -23 19 -23 17 0 35 9
47 25 12 16 29 25 46 25 35 0 49 -10 61 -43 20 -53 17 -57 -47 -51 -44 5 -66
2 -91 -10 -57 -30 -66 -92 -19 -136 31 -28 116 -28 146 0 l22 21 0 -21 c0 -15
7 -20 25 -20 25 0 25 0 25 93 0 110 -13 162 -45 183 -30 20 -90 26 -131 14z"/>
<path d="M7644 4480 c-35 -11 -48 -24 -58 -57 -6 -20 -4 -23 18 -23 14 0 36
11 50 25 40 40 86 32 105 -18 20 -53 17 -57 -47 -51 -44 5 -66 2 -91 -10 -57
-30 -66 -92 -19 -136 31 -28 116 -28 146 0 l22 21 0 -21 c0 -15 7 -20 25 -20
25 0 25 0 25 93 0 110 -13 162 -45 183 -30 20 -90 26 -131 14z"/>
<path d="M8461 4472 c-87 -44 -96 -197 -16 -260 41 -32 123 -31 159 3 14 13
26 28 26 34 0 5 3 16 6 25 11 29 -45 20 -58 -9 -23 -51 -94 -42 -124 16 -49
95 53 212 115 133 14 -18 28 -24 46 -22 l25 3 -18 35 c-30 55 -100 74 -161 42z"/>
<path d="M8950 4472 c-66 -33 -91 -141 -51 -220 22 -44 55 -62 112 -62 54 0
95 23 107 60 11 29 10 30 -17 30 -20 0 -30 -6 -34 -20 -6 -22 -46 -35 -82 -26
-22 6 -55 50 -55 75 0 6 40 11 98 13 l97 3 -2 42 c-4 101 -84 150 -173 105z"/>
<path d="M9315 4479 c-11 -6 -26 -19 -33 -28 -11 -14 -13 -13 -18 7 -4 13 -14
22 -25 22 -18 0 -19 -10 -19 -145 l0 -145 25 0 c25 0 25 1 25 84 0 90 10 131
38 152 25 20 69 17 92 -6 17 -17 20 -33 20 -125 l0 -105 25 0 25 0 0 115 c0
111 -1 116 -27 145 -31 35 -93 49 -128 29z"/>
<path d="M9611 4472 c-87 -44 -96 -197 -16 -260 41 -32 123 -31 159 3 14 13
26 28 26 34 0 5 3 16 6 25 11 29 -45 20 -58 -9 -23 -51 -94 -42 -124 16 -48
94 52 212 114 134 12 -15 30 -25 46 -25 31 0 32 3 5 46 -14 22 -32 37 -57 44
-50 14 -62 13 -101 -8z"/>
<path d="M9920 4473 c-66 -34 -91 -142 -51 -221 22 -44 55 -62 112 -62 54 0
95 23 107 60 11 29 10 30 -17 30 -20 0 -30 -6 -34 -20 -6 -22 -46 -35 -82 -26
-23 6 -55 50 -55 76 0 6 35 10 94 10 55 0 98 4 101 10 13 20 -7 92 -34 122
-34 38 -91 47 -141 21z"/>
<path d="M4040 4380 c0 -109 14 -161 48 -179 34 -18 97 -13 126 10 l26 20 0
-20 c0 -16 6 -21 25 -21 l25 0 0 145 0 145 -25 0 c-25 0 -25 0 -25 -96 0 -92
-1 -97 -29 -125 -28 -28 -64 -37 -87 -21 -25 16 -34 56 -34 146 0 96 0 96 -25
96 l-25 0 0 -100z"/>
<path d="M6160 3860 c0 -50 -6 -60 -27 -39 -18 18 -80 2 -103 -28 -35 -44 -24
-137 19 -170 21 -16 83 -16 100 0 11 10 14 10 18 0 3 -7 11 -13 19 -13 11 0
14 27 14 150 0 143 -1 150 -20 150 -17 0 -20 -7 -20 -50z"/>
<path d="M8300 3860 c0 -50 -6 -60 -27 -39 -18 18 -80 2 -103 -28 -35 -44 -24
-137 19 -170 21 -16 83 -16 100 0 11 10 14 10 18 0 3 -7 11 -13 19 -13 11 0
14 27 14 150 0 143 -1 150 -20 150 -17 0 -20 -7 -20 -50z"/>
<path d="M1620 3750 c0 -133 1 -140 20 -140 18 0 20 7 20 55 l0 55 48 0 c76 0
114 48 92 114 -13 42 -44 56 -120 56 l-60 0 0 -140z"/>
<path d="M3050 3750 c0 -133 1 -140 20 -140 18 0 20 7 20 55 l0 55 48 0 c76 0
114 48 92 114 -13 42 -44 56 -120 56 l-60 0 0 -140z"/>
<path d="M6390 3750 c0 -133 1 -140 20 -140 17 0 20 7 20 49 0 32 5 53 16 61
13 11 20 7 47 -26 67 -81 73 -86 95 -82 19 3 16 9 -38 73 -32 39 -59 74 -60
80 0 5 26 35 57 67 52 53 55 58 33 58 -17 0 -45 -20 -87 -62 l-63 -62 0 62 c0
55 -2 62 -20 62 -19 0 -20 -7 -20 -140z"/>
<path d="M7630 3750 c0 -133 1 -140 20 -140 18 0 20 7 20 55 0 51 2 55 24 55
17 0 33 -14 60 -55 24 -36 43 -55 56 -55 26 0 26 2 -15 62 l-34 52 28 17 c52
31 49 113 -5 138 -14 6 -54 11 -89 11 l-65 0 0 -140z"/>
<path d="M1900 3823 c-19 -7 -40 -33 -40 -50 0 -20 34 -15 48 7 24 39 82 19
82 -27 0 -21 -4 -23 -53 -23 -40 0 -58 -5 -70 -18 -40 -43 -4 -102 61 -102 21
0 44 6 51 13 11 10 14 10 18 0 3 -7 11 -13 19 -13 11 0 14 18 14 85 0 78 -2
88 -25 110 -23 24 -67 32 -105 18z"/>
<path d="M2498 3815 c-32 -18 -52 -73 -43 -122 21 -112 169 -112 190 0 19 98
-64 167 -147 122z m86 -36 c52 -41 25 -139 -38 -139 -55 0 -76 91 -31 135 29
30 35 31 69 4z"/>
<path d="M2733 3818 c-56 -27 -31 -87 47 -113 43 -14 51 -21 48 -38 -4 -32
-72 -37 -90 -8 -16 26 -38 27 -38 2 0 -52 111 -71 155 -27 39 39 19 77 -50 96
-54 15 -73 34 -55 55 7 8 23 15 35 15 12 0 28 -7 35 -15 14 -16 50 -21 50 -6
0 5 -12 19 -26 30 -29 23 -75 26 -111 9z"/>
<path d="M3498 3815 c-54 -30 -61 -133 -13 -181 54 -54 146 -19 160 59 19 98
-64 167 -147 122z m86 -36 c52 -41 25 -139 -38 -139 -55 0 -76 91 -31 135 29
30 35 31 69 4z"/>
<path d="M3908 3815 c-54 -30 -61 -133 -13 -181 54 -54 146 -19 160 59 19 98
-64 167 -147 122z m86 -36 c52 -41 25 -139 -38 -139 -55 0 -76 91 -31 135 29
30 35 31 69 4z"/>
<path d="M4182 3822 c-7 -5 -24 -7 -38 -4 l-24 4 0 -156 c0 -149 1 -156 20
-156 18 0 20 7 20 62 0 48 3 59 12 50 22 -22 83 -14 111 13 42 42 41 130 -2
169 -22 20 -80 30 -99 18z"/>
<path d="M4430 3823 c-19 -7 -40 -33 -40 -50 0 -20 34 -15 48 7 24 39 82 19
82 -27 0 -21 -4 -23 -53 -23 -40 0 -58 -5 -70 -18 -40 -43 -4 -102 61 -102 21
0 44 6 51 13 11 10 14 10 18 0 3 -7 11 -13 19 -13 11 0 14 18 14 85 0 78 -2
88 -25 110 -23 24 -67 32 -105 18z"/>
<path d="M4702 3822 c-7 -5 -24 -7 -38 -4 l-24 4 0 -156 c0 -149 1 -156 20
-156 18 0 20 7 20 62 0 48 3 59 12 50 22 -22 83 -14 111 13 42 42 41 130 -2
169 -22 20 -80 30 -99 18z"/>
<path d="M4950 3823 c-19 -7 -40 -33 -40 -50 0 -20 34 -15 48 7 24 39 82 19
82 -27 0 -21 -4 -23 -53 -23 -40 0 -58 -5 -70 -18 -40 -43 -4 -102 61 -102 21
0 44 6 51 13 11 10 14 10 18 0 3 -7 11 -13 19 -13 11 0 14 18 14 85 0 78 -2
88 -25 110 -23 24 -67 32 -105 18z"/>
<path d="M5183 3818 c-56 -27 -31 -87 47 -113 43 -14 51 -21 48 -38 -4 -32
-72 -37 -90 -8 -16 26 -38 27 -38 2 0 -52 111 -71 155 -27 39 39 19 77 -50 96
-54 15 -73 34 -55 55 7 8 23 15 35 15 12 0 28 -7 35 -15 14 -16 50 -21 50 -6
0 5 -12 19 -26 30 -29 23 -75 26 -111 9z"/>
<path d="M5540 3823 c-19 -7 -40 -33 -40 -50 0 -20 34 -15 48 7 24 39 82 19
82 -27 0 -21 -4 -23 -53 -23 -40 0 -58 -5 -70 -18 -40 -43 -4 -102 61 -102 21
0 44 6 51 13 11 10 14 10 18 0 3 -7 11 -13 19 -13 11 0 14 18 14 85 0 78 -2
88 -25 110 -23 24 -67 32 -105 18z"/>
<path d="M5812 3814 c-12 -8 -22 -10 -22 -5 0 6 -9 11 -20 11 -19 0 -20 -7
-20 -105 0 -98 1 -105 20 -105 18 0 20 7 20 68 0 80 17 112 59 112 43 0 51
-17 51 -102 0 -71 2 -78 20 -78 18 0 20 7 20 75 0 85 -17 129 -52 139 -36 9
-52 7 -76 -10z"/>
<path d="M6688 3815 c-54 -30 -61 -133 -13 -181 44 -44 145 -22 145 31 0 22
-27 18 -40 -5 -15 -28 -64 -27 -84 2 -29 41 -21 48 55 48 l72 0 -6 42 c-9 70
-65 97 -129 63z"/>
<path d="M7312 3814 c-12 -8 -22 -10 -22 -5 0 6 -9 11 -20 11 -19 0 -20 -7
-20 -105 0 -98 1 -105 20 -105 18 0 20 7 20 68 0 80 17 112 59 112 43 0 51
-17 51 -102 0 -71 2 -78 20 -78 18 0 20 7 20 75 0 85 -17 129 -52 139 -36 9
-52 7 -76 -10z"/>
<path d="M7940 3823 c-19 -7 -40 -33 -40 -50 0 -20 34 -15 48 7 24 39 82 19
82 -27 0 -21 -4 -23 -53 -23 -40 0 -58 -5 -70 -18 -40 -43 -4 -102 61 -102 21
0 44 6 51 13 11 10 14 10 18 0 3 -7 11 -13 19 -13 11 0 14 18 14 85 0 78 -2
88 -25 110 -23 24 -67 32 -105 18z"/>
<path d="M8448 3815 c-54 -30 -61 -133 -13 -181 44 -44 145 -22 145 31 0 22
-27 18 -40 -5 -15 -28 -64 -27 -84 2 -29 41 -21 48 55 48 l72 0 -6 42 c-9 70
-65 97 -129 63z"/>
<path d="M2084 3802 c4 -11 22 -57 40 -103 28 -69 38 -84 56 -84 18 0 28 15
56 84 49 121 49 121 25 121 -19 0 -37 -36 -65 -127 -4 -13 -11 -23 -15 -23 -4
0 -19 33 -33 73 -20 57 -30 73 -48 75 -18 3 -21 0 -16 -16z"/>
<path d="M6864 3802 c4 -11 22 -57 40 -103 28 -69 38 -84 56 -84 18 0 28 15
56 84 49 121 49 121 25 121 -19 0 -37 -36 -65 -127 -4 -13 -11 -23 -15 -23 -4
0 -19 33 -33 73 -20 57 -30 73 -48 75 -18 3 -21 0 -16 -16z"/>
<path d="M2890 2325 l0 -345 1070 0 1070 0 0 345 0 345 -1070 0 -1070 0 0
-345z m1242 203 c21 -6 55 -26 76 -45 l37 -33 -24 -20 -23 -20 -21 26 c-40 52
-115 67 -187 38 -71 -28 -111 -115 -91 -192 35 -130 183 -171 274 -77 37 38
49 42 66 21 16 -19 -37 -81 -88 -103 -71 -31 -190 -14 -245 35 -32 29 -66 113
-66 165 0 152 140 251 292 205z m531 -22 c61 -29 64 -33 45 -59 -12 -15 -17
-15 -64 9 -99 49 -224 36 -232 -24 -7 -45 13 -54 153 -68 84 -8 117 -20 151
-55 23 -24 29 -39 29 -75 0 -40 -5 -50 -36 -79 -55 -50 -129 -64 -230 -43 -42
9 -93 27 -113 40 -33 23 -34 26 -21 45 l15 22 58 -30 c72 -37 152 -47 204 -26
47 20 71 56 62 92 -9 35 -47 51 -149 60 -158 14 -215 67 -169 156 37 73 181
90 297 35z m-1453 -186 l0 -210 -25 0 -25 0 0 210 0 210 25 0 25 0 0 -210z
m458 5 l103 -205 -30 0 c-26 0 -34 7 -58 53 l-28 52 -115 0 -115 0 -28 -52
c-23 -44 -33 -53 -56 -53 l-27 0 101 205 c132 271 117 271 253 0z"/>
<path d="M3493 2365 l-42 -85 89 0 89 0 -42 85 c-23 47 -44 85 -47 85 -3 0
-24 -39 -47 -85z"/>
<path d="M5180 2365 l0 -295 1110 0 1110 0 0 295 0 295 -1110 0 -1110 0 0
-295z m325 195 c76 0 78 -5 69 -201 l-7 -160 -71 3 -71 3 -3 184 c-2 165 -1
183 14 177 8 -3 40 -6 69 -6z m245 -169 c0 -205 9 -188 -100 -192 l-64 -3 3
175 c1 96 6 177 9 181 4 4 36 9 72 11 36 2 68 4 73 5 4 1 7 -79 7 -177z m458
163 c13 -4 17 -167 6 -286 l-7 -67 -56 0 c-98 2 -91 -14 -91 189 l0 179 68 -5
c37 -3 73 -7 80 -10z m182 -163 c0 -204 7 -191 -96 -191 l-64 0 2 178 3 177
70 6 c39 3 73 6 78 7 4 1 7 -79 7 -177z m530 153 c12 -12 12 -23 1 -76 -7 -35
-21 -87 -30 -115 -14 -41 -15 -53 -5 -53 7 0 14 11 16 25 2 14 8 25 13 25 6 0
10 -31 10 -72 l0 -73 -100 0 -100 0 -3 180 -2 180 92 -3 c62 -3 98 -8 108 -18z
m230 -154 c0 -96 -3 -177 -6 -180 -3 -3 -50 -7 -105 -10 l-99 -5 0 78 c0 44 4
77 10 77 6 0 10 -11 10 -25 0 -18 5 -25 20 -25 21 0 25 10 12 25 -15 18 -54
172 -50 201 l3 29 95 5 c52 4 99 6 103 5 5 0 8 -79 7 -175z m-1775 -27 l0
-198 80 -3 c121 -4 119 -22 -2 -22 l-102 0 -3 38 c-3 32 -7 37 -31 40 -33 4
-31 24 4 32 23 6 24 9 24 100 l0 95 -28 3 c-33 4 -31 24 4 32 16 4 25 14 27
30 4 35 10 50 19 50 4 0 8 -89 8 -197z m640 0 l0 -198 88 -3 c49 -2 87 -7 87
-13 0 -6 -37 -9 -97 -7 l-98 3 -3 33 c-2 18 -10 35 -18 38 -47 14 -47 14 -34
29 7 8 21 15 32 15 17 0 19 7 16 92 -3 87 -4 92 -26 98 -13 3 -23 10 -23 15 0
6 10 12 23 15 15 4 24 14 26 30 4 35 10 50 19 50 4 0 8 -89 8 -197z m455 156
c4 -26 10 -35 28 -37 30 -4 29 -32 -2 -32 -20 0 -24 -6 -30 -46 -3 -26 -6 -67
-6 -91 0 -40 3 -45 30 -54 38 -14 39 -37 3 -41 -23 -2 -29 -9 -33 -38 l-5 -35
-97 -3 c-63 -2 -98 1 -98 8 0 6 33 10 84 10 69 0 85 3 90 17 4 9 6 96 6 192 0
97 -1 180 0 184 0 5 6 7 13 5 6 -3 14 -20 17 -39z m201 -164 l-2 -195 110 0
c112 0 155 -14 79 -25 -24 -3 -79 -5 -123 -3 l-80 3 -5 34 c-5 33 -14 42 -55
56 l-20 7 20 8 c11 5 27 11 37 13 13 5 16 20 15 99 -2 85 -4 93 -22 94 -38 2
-45 4 -45 14 0 5 15 13 33 18 24 6 33 15 35 33 2 13 5 30 8 38 12 37 16 -14
15 -194z m559 165 c4 -25 11 -36 28 -40 13 -3 23 -9 23 -15 0 -5 -10 -12 -23
-15 -22 -6 -23 -10 -23 -100 l0 -95 28 -3 c15 -2 27 -9 27 -17 0 -8 -12 -15
-27 -17 -24 -3 -28 -8 -31 -38 -2 -19 -9 -38 -15 -42 -7 -4 -65 -8 -129 -8
-97 0 -118 3 -118 15 0 12 22 15 112 17 l112 3 9 40 c4 22 7 111 5 198 -2 101
1 156 7 154 6 -2 12 -19 15 -37z m-1408 -2 c2 -25 9 -34 27 -38 27 -6 41 -29
19 -31 -7 -1 -20 -2 -28 -3 -12 -1 -15 -19 -15 -96 0 -91 1 -94 24 -100 35 -8
37 -28 4 -32 -24 -2 -29 -9 -33 -38 l-5 -35 -103 -3 c-70 -2 -102 1 -97 8 3 5
43 10 90 10 l83 0 7 83 c4 45 5 133 3 195 -2 82 0 112 9 112 6 0 13 -14 15
-32z"/>
<path d="M5183 1883 c15 -358 90 -650 239 -933 66 -125 92 -165 179 -280 162
-214 413 -428 626 -534 l68 -34 45 25 c25 15 71 45 104 67 32 23 70 49 84 58
59 39 279 239 349 318 175 194 310 408 392 620 95 244 121 377 128 653 l5 197
-1112 0 -1113 0 6 -157z"/>
<path d="M2890 1878 c0 -35 5 -106 10 -158 6 -52 13 -132 17 -178 3 -46 9 -79
13 -75 10 10 150 440 150 459 0 11 -20 14 -95 14 l-95 0 0 -62z"/>
<path d="M3150 1930 c0 -6 25 -54 57 -108 31 -53 72 -124 90 -157 45 -79 51
-84 58 -49 4 16 24 83 45 149 21 66 40 132 44 148 l6 27 -150 0 c-94 0 -150
-4 -150 -10z"/>
<path d="M3520 1934 c0 -3 53 -66 118 -139 l117 -134 3 77 c2 42 0 105 -3 140
l-7 62 -114 0 c-63 0 -114 -3 -114 -6z"/>
<path d="M3794 1808 c3 -72 8 -133 10 -135 4 -4 196 251 196 261 0 3 -48 6
-106 6 l-107 0 7 -132z"/>
<path d="M4070 1931 c0 -8 45 -112 122 -283 12 -27 24 -48 27 -48 5 0 140 283
159 331 2 5 -66 9 -152 9 -87 0 -156 -4 -156 -9z"/>
<path d="M4454 1883 c31 -77 58 -133 66 -133 3 0 48 43 100 95 l95 95 -142 0
-142 0 23 -57z"/>
<path d="M4780 1932 c0 -4 23 -73 51 -152 27 -80 65 -188 84 -241 50 -145 49
-145 69 -27 19 117 35 285 36 371 l0 57 -120 0 c-66 0 -120 -4 -120 -8z"/>
<path d="M3056 1733 c-31 -98 -68 -209 -82 -247 -13 -38 -22 -71 -19 -74 2 -3
33 7 67 21 35 15 67 27 71 27 9 0 227 91 227 95 0 5 -192 339 -200 348 -4 5
-33 -72 -64 -170z"/>
<path d="M3470 1886 c-5 -14 -16 -52 -24 -83 -9 -32 -29 -97 -45 -145 -16 -48
-27 -90 -23 -92 4 -2 57 4 117 14 61 10 143 24 184 30 40 7 69 15 65 19 -5 3
-63 67 -129 141 -65 74 -122 136 -127 138 -4 2 -12 -8 -18 -22z"/>
<path d="M3922 1769 c-57 -78 -102 -143 -100 -145 4 -3 338 -54 359 -54 7 0
-8 41 -46 125 -8 16 -32 70 -53 119 -21 50 -43 91 -48 93 -5 1 -55 -61 -112
-138z"/>
<path d="M4370 1837 c-18 -39 -51 -109 -72 -154 -21 -46 -38 -85 -38 -87 0 -3
37 16 83 41 112 61 142 78 144 79 3 1 -75 185 -80 191 -2 1 -19 -30 -37 -70z"/>
<path d="M4680 1669 c-39 -123 -76 -237 -81 -253 -5 -16 -8 -30 -7 -31 2 -1
80 -5 175 -9 l171 -6 -44 127 c-25 71 -58 166 -74 213 -16 47 -38 107 -49 134
l-19 50 -72 -225z"/>
<path d="M4617 1792 l-87 -87 16 -105 c25 -173 22 -175 96 61 37 117 66 214
65 216 -2 1 -42 -37 -90 -85z"/>
<path d="M4372 1617 c-100 -55 -110 -63 -95 -75 31 -24 255 -133 261 -128 3 3
-3 54 -12 113 -21 131 -26 153 -35 152 -3 0 -57 -28 -119 -62z"/>
<path d="M3675 1574 c-38 -7 -115 -18 -170 -24 -55 -7 -104 -15 -108 -19 -7
-7 211 -221 232 -229 8 -3 127 276 120 281 -2 2 -35 -2 -74 -9z"/>
<path d="M3810 1586 c0 -3 15 -45 34 -93 19 -49 47 -121 62 -160 15 -40 30
-73 34 -73 4 0 24 21 46 47 21 26 75 88 118 138 l80 90 -40 7 c-21 4 -97 14
-169 23 -71 9 -138 19 -147 21 -10 3 -18 3 -18 0z"/>
<path d="M3772 1540 c-6 -14 -29 -70 -52 -125 -64 -153 -70 -138 61 -158 62
-9 114 -15 117 -13 4 4 -16 60 -82 231 -32 82 -35 88 -44 65z"/>
<path d="M4240 1507 c0 -30 65 -437 69 -437 4 1 42 48 86 106 44 58 90 118
103 132 50 58 54 53 -108 136 -85 42 -150 70 -150 63z"/>
<path d="M4085 1371 c-66 -78 -119 -144 -118 -148 0 -3 50 -33 110 -65 59 -33
128 -71 152 -85 l44 -26 -6 39 c-4 22 -16 107 -27 189 -11 83 -23 170 -27 193
l-8 44 -120 -141z"/>
<path d="M3155 1448 c-71 -28 -149 -57 -173 -66 -33 -11 -42 -19 -36 -31 3 -9
24 -67 45 -130 21 -63 41 -116 43 -119 4 -3 211 305 260 386 11 18 4 16 -139
-40z"/>
<path d="M3203 1287 c-104 -158 -129 -203 -115 -205 21 -3 320 43 328 51 4 3
-7 66 -24 139 -17 73 -34 152 -37 176 -4 23 -10 42 -13 42 -4 0 -67 -91 -139
-203z"/>
<path d="M3380 1477 c0 -3 13 -60 29 -128 16 -68 32 -141 35 -161 4 -21 10
-38 15 -38 4 0 40 25 80 57 l73 56 -88 89 c-83 82 -144 136 -144 125z"/>
<path d="M4725 1226 c66 -69 122 -126 126 -126 3 0 24 51 46 113 34 97 37 113
23 118 -8 4 -83 10 -165 14 l-149 8 119 -127z"/>
<path d="M4437 1179 l-108 -140 128 7 c70 4 129 8 131 9 5 4 -31 265 -37 265
-3 -1 -55 -64 -114 -141z"/>
<path d="M4594 1295 c3 -16 11 -74 16 -129 11 -109 14 -119 38 -112 10 2 52 7
95 11 59 5 75 10 70 20 -5 7 -57 64 -117 126 -92 96 -108 109 -102 84z"/>
<path d="M3665 1139 c3 -58 10 -120 13 -138 l7 -33 55 63 c30 35 76 86 102
114 26 27 48 52 48 55 0 4 -39 12 -86 18 -47 7 -99 16 -116 19 l-31 6 8 -104z"/>
<path d="M3542 1166 l-72 -54 86 -72 c47 -39 87 -70 89 -68 2 2 0 46 -5 98 -5
52 -10 107 -10 123 0 15 -4 27 -8 27 -5 0 -41 -24 -80 -54z"/>
<path d="M3971 1083 c10 -54 21 -108 24 -120 l5 -21 82 25 c46 14 102 33 126
42 l43 17 -28 14 c-15 8 -79 43 -141 77 -63 35 -117 63 -121 63 -5 0 0 -44 10
-97z"/>
<path d="M3823 1073 c-135 -149 -136 -133 12 -133 l127 0 -5 33 c-3 17 -11 69
-18 115 -7 45 -16 82 -20 82 -4 0 -47 -44 -96 -97z"/>
<path d="M3235 1068 c-77 -11 -148 -23 -157 -27 -15 -5 -6 -25 58 -134 59
-100 79 -126 89 -117 7 6 48 70 91 143 44 72 83 137 87 144 10 16 11 16 -168
-9z"/>
<path d="M3370 958 c-87 -142 -102 -170 -97 -175 4 -3 151 57 316 128 27 12
41 23 35 28 -25 26 -168 141 -174 141 -3 0 -39 -55 -80 -122z"/>
<path d="M4702 1030 c-34 -4 -64 -9 -66 -11 -7 -6 48 -219 56 -219 8 0 128
214 128 229 0 12 -21 12 -118 1z"/>
<path d="M4425 1011 l-80 -6 40 -29 c22 -17 58 -43 80 -59 22 -15 71 -51 109
-78 38 -27 71 -47 74 -45 2 3 -8 55 -24 115 l-28 111 -45 -2 c-25 -1 -82 -4
-126 -7z"/>
<path d="M4131 949 c-62 -21 -116 -40 -118 -43 -5 -5 76 -217 88 -230 4 -5 31
40 60 100 78 164 100 214 91 213 -4 -1 -58 -18 -121 -40z"/>
<path d="M4354 858 c18 -62 48 -167 66 -233 18 -66 34 -122 36 -124 3 -4 43
41 134 152 l69 84 -157 113 c-86 62 -162 114 -168 117 -8 3 0 -38 20 -109z"/>
<path d="M4207 798 c-43 -88 -76 -165 -75 -170 3 -9 279 -141 284 -135 2 1
-10 52 -27 112 -16 61 -43 165 -61 233 -18 67 -35 122 -38 122 -3 0 -41 -73
-83 -162z"/>
<path d="M3700 905 c0 -11 115 -223 123 -227 9 -3 132 211 125 216 -7 6 -248
17 -248 11z"/>
<path d="M3590 877 c-19 -7 -66 -27 -105 -44 -38 -17 -105 -46 -148 -63 -43
-18 -80 -37 -83 -41 -6 -10 147 -222 161 -222 6 0 15 9 20 19 6 11 43 82 84
159 40 77 82 155 93 173 11 17 18 32 16 32 -2 -1 -19 -7 -38 -13z"/>
<path d="M3643 843 c-24 -44 -65 -120 -136 -252 -57 -108 -65 -105 98 -36 61
25 129 54 153 63 23 9 41 19 40 23 -15 34 -124 239 -129 239 -3 0 -15 -17 -26
-37z"/>
<path d="M3952 828 c-12 -24 -37 -71 -57 -106 -19 -35 -35 -67 -35 -71 0 -9
200 -24 208 -16 3 3 -6 35 -20 72 -15 38 -34 89 -43 116 -10 26 -21 47 -24 47
-4 0 -17 -19 -29 -42z"/>
<path d="M3860 604 c0 -6 38 -81 83 -167 l14 -27 57 92 56 93 -42 7 c-56 9
-168 10 -168 2z"/>
<path d="M3725 570 c-22 -11 -91 -40 -153 -66 -62 -25 -112 -50 -110 -54 4 -8
196 -174 208 -178 4 -2 19 28 33 65 73 200 87 240 87 246 0 11 -23 7 -65 -13z"/>
<path d="M3807 534 c-8 -27 -28 -85 -45 -129 -16 -44 -32 -92 -36 -108 l-6
-27 97 51 c54 28 102 55 107 59 7 7 -72 171 -94 194 -5 5 -15 -13 -23 -40z"/>
<path d="M4141 553 c6 -16 28 -77 50 -138 22 -60 43 -113 48 -118 4 -4 46 28
92 72 46 43 82 81 79 84 -6 5 -270 127 -275 127 -3 0 0 -12 6 -27z"/>
<path d="M4038 477 l-57 -92 101 -47 c55 -27 105 -48 109 -48 8 0 -68 229 -88
264 -7 12 -20 -3 -65 -77z"/>
<path d="M3970 224 l0 -126 28 18 c148 96 191 129 183 137 -7 7 -118 59 -188
87 l-23 10 0 -126z"/>
<path d="M3825 290 c-49 -27 -91 -52 -92 -57 -3 -9 185 -133 200 -133 4 0 7
54 7 120 0 90 -3 120 -12 119 -7 -1 -53 -23 -103 -49z"/>
</g>
</svg>
